<svg xmlns="http://www.w3.org/2000/svg" width="1609.6" height="839.5" viewBox="0 0 1609.6 839.5" fill="black"><path d="M0,642.1v-42h35.3v42H31v-39.4l1.1,1.2H3.2l1.1-1.2v39.4H0z M67.9,642.4c-3.2,0-6.1-0.5-8.8-1.6c-2.7-1.1-5-2.6-7-4.5c-2-1.9-3.5-4.2-4.6-6.8c-1.1-2.6-1.6-5.4-1.6-8.5c0-3.1,0.5-5.9,1.6-8.5c1.1-2.6,2.6-4.8,4.6-6.8s4.3-3.4,7-4.5c2.7-1.1,5.6-1.6,8.8-1.6c3.2,0,6.1,0.5,8.8,1.6c2.7,1.1,5,2.5,7,4.5s3.5,4.2,4.6,6.8c1.1,2.6,1.6,5.4,1.6,8.5c0,3.1-0.6,5.9-1.6,8.5c-1.1,2.6-2.6,4.9-4.6,6.8s-4.3,3.4-7,4.5C74,641.9,71.1,642.4,67.9,642.4z M67.9,638.5c2.5,0,4.8-0.4,7-1.3c2.1-0.9,4-2.1,5.6-3.7c1.6-1.6,2.8-3.4,3.7-5.5c0.9-2.1,1.3-4.4,1.3-6.9s-0.4-4.8-1.3-6.9c-0.9-2.1-2.1-3.9-3.7-5.5c-1.6-1.6-3.4-2.8-5.6-3.7c-2.1-0.9-4.5-1.3-7-1.3s-4.9,0.4-7,1.3c-2.2,0.9-4,2.1-5.6,3.7c-1.6,1.6-2.8,3.4-3.7,5.5c-0.9,2.1-1.4,4.4-1.4,6.9c0,2.5,0.5,4.8,1.4,6.9s2.1,4,3.7,5.5c1.6,1.6,3.4,2.8,5.6,3.7S65.4,638.5,67.9,638.5z M98.6,642.1h-5.2l15.4-23.1l3.8,2.2L98.6,642.1z M108.6,621.5l-14.1-21.5h4.8l13.3,20.8L108.6,621.5z M121.5,622.8h-12v-3.9h12V622.8z M124.5,642.1h-4.3v-42h4.3V642.1z M123.1,622.8v-3.9h12v3.9H123.1z M136,621.5l-4.1-0.7l13.4-20.8h4.8L136,621.5z M146,642.1l-14-20.9l3.8-2.2l15.4,23.1H146z M151.6,642.1l19.2-42h4.4l19.2,42h-4.7l-17.6-39.4h1.8l-17.6,39.4H151.6z M159.2,630.8l1.3-3.6h24.4l1.3,3.6H159.2z M199.4,642.4c-0.6,0-1.1,0-1.6-0.1c-0.5-0.1-1.1-0.2-1.7-0.3l0.4-4c0.7,0.2,1.3,0.2,2,0.2c1.8,0,3.2-0.7,4.4-2.1c1.1-1.4,1.9-3.6,2.5-6.6c0.6-3,0.9-6.8,1.1-11.5l0.6-18h28.5v42H231v-39.4l1.1,1.2h-22.4l1.1-1.3l-0.5,15.3c-0.2,4.2-0.5,7.8-0.9,10.9c-0.4,3.1-1.1,5.6-1.9,7.6c-0.8,2-1.9,3.5-3.2,4.5C202.9,641.9,201.3,642.4,199.4,642.4z M261.9,634.5l-18.2-34.4h4.7l15.8,30.8L261.9,634.5z M248.8,637.9c2,0.8,4,1,5.8,0.6c1.8-0.4,3.5-1.8,5-4.2l2-3.2l0.4-0.5l16.1-30.4h4.4l-19.1,35.2c-1.3,2.4-2.8,4.3-4.5,5.5c-1.7,1.2-3.6,1.8-5.5,1.9c-1.9,0.1-3.9-0.3-5.9-1.1L248.8,637.9z M289.4,642.1v-42h4.4v34.8l26.9-34.8h4v42h-4.4v-34.7l-26.9,34.7H289.4z M307,597c-3,0-5.4-0.7-7.1-2c-1.7-1.4-2.6-3.3-2.7-5.7h3.3c0,1.6,0.6,2.9,1.8,3.8c1.2,0.9,2.7,1.4,4.6,1.4s3.5-0.5,4.6-1.4c1.2-0.9,1.8-2.2,1.8-3.8h3.3c0,2.4-0.9,4.3-2.7,5.7C312.3,596.3,309.9,597,307,597z M357.2,642.4c-3.2,0-6.1-0.5-8.8-1.6c-2.7-1.1-5-2.5-7-4.5c-2-1.9-3.5-4.2-4.6-6.8c-1.1-2.6-1.6-5.4-1.6-8.5c0-3.1,0.5-5.9,1.6-8.5c1.1-2.6,2.6-4.9,4.6-6.8s4.3-3.4,7-4.5c2.7-1.1,5.6-1.6,8.8-1.6c3,0,5.9,0.5,8.6,1.5c2.7,1,4.9,2.5,6.8,4.6l-2.8,2.8c-1.7-1.8-3.6-3-5.7-3.8c-2.1-0.8-4.3-1.2-6.7-1.2c-2.5,0-4.9,0.4-7,1.3c-2.2,0.9-4,2.1-5.6,3.7c-1.6,1.6-2.9,3.4-3.8,5.5c-0.9,2.1-1.4,4.4-1.4,6.9s0.5,4.8,1.4,6.9c0.9,2.1,2.1,3.9,3.8,5.5c1.6,1.6,3.5,2.8,5.6,3.7c2.2,0.9,4.5,1.3,7,1.3c2.4,0,4.6-0.4,6.7-1.2c2.1-0.8,4-2.1,5.7-3.8l2.8,2.8c-1.8,2-4.1,3.6-6.8,4.6C363.2,641.9,360.3,642.4,357.2,642.4z M389.6,642.1v-39.4l1.2,1.2h-16v-3.8h33.9v3.8h-15.9l1.1-1.2v39.4H389.6z M408.3,642.1l19.2-42h4.4l19.2,42h-4.7l-17.6-39.4h1.8l-17.6,39.4H408.3z M415.9,630.8l1.3-3.6h24.4l1.3,3.6H415.9z M457.4,650.8l2.6-11.1l0.5,2.6c-0.9,0-1.7-0.3-2.3-0.9c-0.6-0.6-0.9-1.4-0.9-2.3s0.3-1.7,0.9-2.3c0.6-0.6,1.4-0.9,2.2-0.9c0.9,0,1.7,0.3,2.2,1c0.6,0.6,0.9,1.4,0.9,2.3c0,0.3,0,0.6-0.1,1c0,0.3-0.1,0.7-0.2,1.1c-0.1,0.4-0.3,0.9-0.5,1.4l-2.5,8.3H457.4z M489.6,642.1v-42h35.3v42h-4.4v-39.4l1.1,1.2h-28.9l1.1-1.2v39.4H489.6z M543.5,638.2h25.3v3.8h-29.7v-42h28.8v3.8h-24.4V638.2z M543.1,618.8h22.2v3.8h-22.2V618.8z M578.6,642.1v-42h15.7c3.6,0,6.6,0.6,9.2,1.7c2.6,1.1,4.5,2.8,5.9,4.9c1.4,2.1,2.1,4.7,2.1,7.8c0,3-0.7,5.5-2.1,7.6c-1.4,2.1-3.4,3.8-5.9,5c-2.6,1.2-5.6,1.7-9.2,1.7h-13.3l2-2.1v15.4H578.6z M583.1,627.1l-2-2.2h13.1c4.2,0,7.4-0.9,9.6-2.7c2.2-1.8,3.3-4.4,3.3-7.7c0-3.4-1.1-6-3.3-7.8c-2.2-1.8-5.4-2.8-9.6-2.8h-13.1l2-2.1V627.1z M625,638.2h25.3v3.8h-29.7v-42h28.8v3.8H625V638.2z M624.5,618.8h22.2v3.8h-22.2V618.8z M660.1,642.1v-42h17.5c4.4,0,7.9,0.9,10.5,2.7s3.8,4.5,3.8,8c0,3.5-1.2,6.1-3.7,7.9c-2.4,1.8-5.6,2.7-9.6,2.7l1-1.5c4.7,0,8.2,0.9,10.7,2.8c2.4,1.8,3.7,4.5,3.7,8.1c0,3.6-1.3,6.4-3.8,8.4c-2.5,2-6.4,3-11.4,3H660.1z M664.5,619.1h12.8c3.2,0,5.7-0.6,7.5-1.9c1.7-1.3,2.6-3.2,2.6-5.8s-0.9-4.5-2.6-5.8c-1.7-1.3-4.2-2-7.5-2h-12.8V619.1z M664.5,638.5h14.2c3.6,0,6.3-0.7,8.1-2c1.8-1.3,2.8-3.4,2.8-6.1c0-2.7-0.9-4.7-2.8-6c-1.8-1.3-4.5-1.9-8.1-1.9h-14.2V638.5z M709.5,638.2h25.3v3.8h-29.7v-42h28.8v3.8h-24.4V638.2z M709,618.8h22.2v3.8H709V618.8z M744.6,642.1v-42h15.7c3.6,0,6.6,0.6,9.2,1.7c2.6,1.1,4.5,2.8,5.9,4.9c1.4,2.1,2.1,4.7,2.1,7.8c0,3-0.7,5.5-2.1,7.6c-1.4,2.1-3.4,3.8-5.9,5c-2.6,1.2-5.6,1.7-9.2,1.7h-13.3l2-2.1v15.4H744.6z M749,627.1l-2-2.2h13.1c4.2,0,7.4-0.9,9.6-2.7c2.2-1.8,3.3-4.4,3.3-7.7c0-3.4-1.1-6-3.3-7.8c-2.2-1.8-5.4-2.8-9.6-2.8h-13.1l2-2.1V627.1z M791,642.1h-4.4v-42h4.4V642.1z M817.7,622.7h-27.2v-3.9h27.2V622.7z M817.3,600.1h4.4v42h-4.4V600.1z M835.8,642.1v-42h4.4v34.8l26.9-34.8h4v42h-4.4v-34.7l-26.9,34.7H835.8z M893.6,642.1v-39.4l1.2,1.2h-16v-3.8h33.9v3.8h-15.9l1.1-1.2v39.4H893.6z M925,638.2h25.3v3.8h-29.7v-42h28.8v3.8H925V638.2z M924.5,618.8h22.2v3.8h-22.2V618.8z M975.8,642.1v-42h17.5c4.4,0,7.9,0.9,10.5,2.7s3.8,4.5,3.8,8c0,3.5-1.2,6.1-3.7,7.9c-2.4,1.8-5.6,2.7-9.6,2.7l1-1.5c4.7,0,8.2,0.9,10.7,2.8c2.4,1.8,3.7,4.5,3.7,8.1c0,3.6-1.3,6.4-3.8,8.4c-2.5,2-6.4,3-11.4,3H975.8z M980.2,619.1H993c3.2,0,5.7-0.6,7.5-1.9c1.7-1.3,2.6-3.2,2.6-5.8s-0.9-4.5-2.6-5.8c-1.7-1.3-4.2-2-7.5-2h-12.8V619.1z M980.2,638.5h14.2c3.6,0,6.3-0.7,8.1-2c1.8-1.3,2.8-3.4,2.8-6.1c0-2.7-0.9-4.7-2.8-6c-1.8-1.3-4.5-1.9-8.1-1.9h-14.2V638.5z M1014.5,642.1l19.2-42h4.4l19.2,42h-4.7l-17.6-39.4h1.8l-17.6,39.4H1014.5z M1022.1,630.8l1.3-3.6h24.4l1.3,3.6H1022.1z M1090,638.2l-1.1,1.2v-39.4h4.4v39.4l-1.2-1.2h21.5l-1.2,1.2v-39.4h4.4v42h-51.5v-42h4.4v39.4l-1.1-1.2H1090z M1135.4,638.2h25.3v3.8H1131v-42h28.8v3.8h-24.4V638.2z M1135,618.8h22.2v3.8H1135V618.8z M1198.6,634.5l-18.2-34.4h4.7l15.8,30.8L1198.6,634.5z M1185.5,637.9c2,0.8,4,1,5.8,0.6s3.5-1.8,5-4.2l2-3.2l0.4-0.5l16.1-30.4h4.4l-19.1,35.2c-1.3,2.4-2.8,4.3-4.5,5.5c-1.7,1.2-3.6,1.8-5.5,1.9c-1.9,0.1-3.9-0.3-5.9-1.1L1185.5,637.9z M1244.2,642.4c-3.2,0-6.1-0.5-8.8-1.6c-2.7-1.1-5-2.5-7-4.5s-3.5-4.2-4.6-6.8c-1.1-2.6-1.6-5.4-1.6-8.5c0-3.1,0.5-5.9,1.6-8.5c1.1-2.6,2.6-4.9,4.6-6.8s4.3-3.4,7-4.5c2.7-1.1,5.6-1.6,8.8-1.6c3,0,5.9,0.5,8.6,1.5c2.7,1,4.9,2.5,6.8,4.6l-2.8,2.8c-1.7-1.8-3.6-3-5.7-3.8c-2.1-0.8-4.3-1.2-6.7-1.2c-2.5,0-4.9,0.4-7,1.3c-2.2,0.9-4,2.1-5.6,3.7c-1.6,1.6-2.8,3.4-3.8,5.5c-0.9,2.1-1.3,4.4-1.3,6.9s0.4,4.8,1.3,6.9c0.9,2.1,2.1,3.9,3.8,5.5c1.6,1.6,3.5,2.8,5.6,3.7c2.2,0.9,4.5,1.3,7,1.3c2.4,0,4.6-0.4,6.7-1.2c2.1-0.8,4-2.1,5.7-3.8l2.8,2.8c-1.8,2-4.1,3.6-6.8,4.6C1250.1,641.9,1247.2,642.4,1244.2,642.4z M1276.6,642.1v-39.4l1.2,1.2h-16v-3.8h33.9v3.8h-15.9l1.1-1.2v39.4H1276.6z M1303.5,642.1v-42h15.7c3.6,0,6.6,0.6,9.2,1.7c2.6,1.1,4.5,2.8,5.9,4.9c1.4,2.1,2.1,4.7,2.1,7.8c0,3-0.7,5.5-2.1,7.6c-1.4,2.1-3.4,3.8-5.9,5c-2.6,1.2-5.6,1.7-9.2,1.7H1306l2-2.1v15.4H1303.5z M1307.9,627.1l-2-2.2h13.1c4.2,0,7.4-0.9,9.6-2.7c2.2-1.8,3.3-4.4,3.3-7.7c0-3.4-1.1-6-3.3-7.8c-2.2-1.8-5.4-2.8-9.6-2.8H1306l2-2.1V627.1z M1364.5,642.4c-3.2,0-6.1-0.5-8.8-1.6c-2.7-1.1-5-2.6-7-4.5c-2-1.9-3.5-4.2-4.6-6.8c-1.1-2.6-1.7-5.4-1.7-8.5c0-3.1,0.5-5.9,1.7-8.5c1.1-2.6,2.6-4.8,4.6-6.8c2-1.9,4.3-3.4,7-4.5s5.6-1.6,8.8-1.6c3.2,0,6.1,0.5,8.8,1.6s5,2.5,7,4.5s3.5,4.2,4.6,6.8c1.1,2.6,1.6,5.4,1.6,8.5c0,3.1-0.5,5.9-1.6,8.5c-1.1,2.6-2.6,4.9-4.6,6.8s-4.3,3.4-7,4.5C1370.5,641.9,1367.6,642.4,1364.5,642.4z M1364.5,638.5c2.5,0,4.8-0.4,7-1.3c2.1-0.9,4-2.1,5.6-3.7c1.6-1.6,2.8-3.4,3.7-5.5c0.9-2.1,1.3-4.4,1.3-6.9s-0.4-4.8-1.3-6.9c-0.9-2.1-2.1-3.9-3.7-5.5c-1.6-1.6-3.4-2.8-5.6-3.7c-2.1-0.9-4.5-1.3-7-1.3s-4.9,0.4-7,1.3c-2.2,0.9-4,2.1-5.6,3.7c-1.6,1.6-2.8,3.4-3.7,5.5c-0.9,2.1-1.4,4.4-1.4,6.9c0,2.5,0.5,4.8,1.4,6.9c0.9,2.1,2.1,4,3.7,5.5c1.6,1.6,3.5,2.8,5.6,3.7C1359.6,638,1361.9,638.5,1364.5,638.5z M1397.1,642.1v-42h4.4v34.8l26.9-34.8h4v42h-4.4v-34.7l-26.9,34.7H1397.1z M1414.6,597c-3,0-5.4-0.7-7.1-2c-1.7-1.4-2.6-3.3-2.7-5.7h3.3c0,1.6,0.6,2.9,1.8,3.8c1.2,0.9,2.7,1.4,4.6,1.4s3.5-0.5,4.7-1.4c1.2-0.9,1.8-2.2,1.8-3.8h3.3c0,2.4-0.9,4.3-2.7,5.7C1419.9,596.3,1417.6,597,1414.6,597z M1464.9,642.4c-3.2,0-6.1-0.5-8.8-1.6c-2.7-1.1-5-2.5-7-4.5s-3.5-4.2-4.6-6.8c-1.1-2.6-1.6-5.4-1.6-8.5c0-3.1,0.5-5.9,1.6-8.5c1.1-2.6,2.6-4.9,4.6-6.8s4.3-3.4,7-4.5c2.7-1.1,5.6-1.6,8.8-1.6c3,0,5.9,0.5,8.6,1.5c2.7,1,4.9,2.5,6.8,4.6l-2.8,2.8c-1.7-1.8-3.6-3-5.7-3.8c-2.1-0.8-4.3-1.2-6.7-1.2c-2.5,0-4.9,0.4-7,1.3c-2.2,0.9-4,2.1-5.6,3.7c-1.6,1.6-2.8,3.4-3.8,5.5c-0.9,2.1-1.3,4.4-1.3,6.9s0.4,4.8,1.3,6.9c0.9,2.1,2.1,3.9,3.8,5.5c1.6,1.6,3.5,2.8,5.6,3.7c2.2,0.9,4.5,1.3,7,1.3c2.4,0,4.6-0.4,6.7-1.2c2.1-0.8,4-2.1,5.7-3.8l2.8,2.8c-1.8,2-4.1,3.6-6.8,4.6C1470.8,641.9,1468,642.4,1464.9,642.4z M1497.3,642.1v-39.4l1.2,1.2h-16v-3.8h33.9v3.8h-15.9l1.1-1.2v39.4H1497.3z M1524.2,642.1v-42h17.5c4.4,0,7.9,0.9,10.5,2.7s3.8,4.5,3.8,8c0,3.5-1.2,6.1-3.7,7.9c-2.4,1.8-5.6,2.7-9.6,2.7l1-1.5c4.7,0,8.2,0.9,10.7,2.8c2.4,1.8,3.7,4.5,3.7,8.1c0,3.6-1.3,6.4-3.8,8.4c-2.5,2-6.4,3-11.4,3H1524.2z M1528.6,619.1h12.8c3.2,0,5.7-0.6,7.5-1.9c1.7-1.3,2.6-3.2,2.6-5.8s-0.9-4.5-2.6-5.8c-1.7-1.3-4.2-2-7.5-2h-12.8V619.1z M1528.6,638.5h14.2c3.6,0,6.3-0.7,8.1-2c1.8-1.3,2.8-3.4,2.8-6.1c0-2.7-0.9-4.7-2.8-6c-1.8-1.3-4.5-1.9-8.1-1.9h-14.2V638.5z M1587.6,642.4c-3.2,0-6.1-0.5-8.8-1.6c-2.7-1.1-5-2.6-7-4.5c-2-1.9-3.5-4.2-4.6-6.8c-1.1-2.6-1.7-5.4-1.7-8.5c0-3.1,0.5-5.9,1.7-8.5c1.1-2.6,2.6-4.8,4.6-6.8c2-1.9,4.3-3.4,7-4.5s5.6-1.6,8.8-1.6c3.2,0,6.1,0.5,8.8,1.6s5,2.5,7,4.5s3.5,4.2,4.6,6.8c1.1,2.6,1.6,5.4,1.6,8.5c0,3.1-0.5,5.9-1.6,8.5c-1.1,2.6-2.6,4.9-4.6,6.8s-4.3,3.4-7,4.5C1593.7,641.9,1590.7,642.4,1587.6,642.4z M1587.6,638.5c2.5,0,4.8-0.4,7-1.3c2.1-0.9,4-2.1,5.6-3.7c1.6-1.6,2.8-3.4,3.7-5.5c0.9-2.1,1.3-4.4,1.3-6.9s-0.4-4.8-1.3-6.9c-0.9-2.1-2.1-3.9-3.7-5.5c-1.6-1.6-3.4-2.8-5.6-3.7c-2.1-0.9-4.5-1.3-7-1.3s-4.9,0.4-7,1.3c-2.2,0.9-4,2.1-5.6,3.7c-1.6,1.6-2.8,3.4-3.7,5.5c-0.9,2.1-1.4,4.4-1.4,6.9c0,2.5,0.5,4.8,1.4,6.9c0.9,2.1,2.1,4,3.7,5.5c1.6,1.6,3.5,2.8,5.6,3.7C1582.7,638,1585.1,638.5,1587.6,638.5z M285.7,736.1v-42h17.5c4.4,0,7.9,0.9,10.5,2.7c2.5,1.8,3.8,4.5,3.8,8c0,3.5-1.2,6.1-3.7,7.9c-2.4,1.8-5.6,2.7-9.6,2.7l1-1.5c4.7,0,8.2,0.9,10.7,2.8c2.4,1.8,3.7,4.5,3.7,8.1c0,3.6-1.3,6.4-3.8,8.4c-2.5,2-6.4,3-11.4,3H285.7z M290.1,713.1h12.8c3.2,0,5.7-0.6,7.5-1.9c1.7-1.3,2.6-3.2,2.6-5.8s-0.9-4.5-2.6-5.8c-1.7-1.3-4.2-2-7.5-2h-12.8V713.1z M290.1,732.5h14.2c3.6,0,6.3-0.7,8.1-2c1.8-1.3,2.8-3.4,2.8-6.1c0-2.7-0.9-4.7-2.8-6c-1.8-1.3-4.5-1.9-8.1-1.9h-14.2V732.5z M346.4,736.1v-42h17.5c4.4,0,7.9,0.9,10.5,2.7c2.5,1.8,3.8,4.5,3.8,8c0,3.5-1.2,6.1-3.7,7.9c-2.4,1.8-5.6,2.7-9.6,2.7l1-1.5c4.7,0,8.2,0.9,10.7,2.8c2.4,1.8,3.7,4.5,3.7,8.1c0,3.6-1.3,6.4-3.8,8.4c-2.5,2-6.4,3-11.4,3H346.4z M350.7,713.1h12.8c3.2,0,5.7-0.6,7.5-1.9c1.7-1.3,2.6-3.2,2.6-5.8s-0.9-4.5-2.6-5.8c-1.7-1.3-4.2-2-7.5-2h-12.8V713.1z M350.7,732.5H365c3.6,0,6.3-0.7,8.1-2c1.8-1.3,2.8-3.4,2.8-6.1c0-2.7-0.9-4.7-2.8-6c-1.8-1.3-4.5-1.9-8.1-1.9h-14.2V732.5z M395.7,732.2H421v3.8h-29.7v-42h28.8v3.8h-24.4V732.2z M395.3,712.8h22.2v3.8h-22.2V712.8z M430.8,736.1v-42h15.7c3.6,0,6.6,0.6,9.2,1.7c2.6,1.1,4.5,2.8,5.9,4.9c1.4,2.1,2.1,4.7,2.1,7.8c0,3-0.7,5.5-2.1,7.6c-1.4,2.1-3.4,3.8-5.9,5c-2.6,1.2-5.6,1.7-9.2,1.7h-13.3l2-2.1v15.4H430.8z M435.3,721.1l-2-2.2h13.1c4.2,0,7.4-0.9,9.6-2.7c2.2-1.8,3.3-4.4,3.3-7.7c0-3.4-1.1-6-3.3-7.8c-2.2-1.8-5.4-2.8-9.6-2.8h-13.1l2-2.1V721.1z M479.7,736.1v-39.4l1.2,1.2h-16v-3.8h33.9v3.8H483l1.1-1.2v39.4H479.7z M506.7,736.1v-42h4.4v34.8l26.9-34.8h4v42h-4.4v-34.7l-26.9,34.7H506.7z M556.1,736.1v-42h4.3v42H556.1z M559.1,716.8v-3.9h13.1v3.9H559.1z M572.7,715.5l-4.1-0.7l15.7-20.8h4.8L572.7,715.5z M584.9,736.1l-16.1-20.9l3.6-2.2l17.6,23.1H584.9z M590.1,736.1l19.2-42h4.4l19.2,42h-4.7l-17.6-39.4h1.8l-17.6,39.4H590.1z M597.7,724.8l1.3-3.6h24.4l1.3,3.6H597.7z M637.9,736.4c-0.6,0-1.1,0-1.6-0.1c-0.5-0.1-1.1-0.2-1.7-0.3l0.4-4c0.7,0.2,1.3,0.2,2,0.2c1.8,0,3.2-0.7,4.4-2.1c1.1-1.4,1.9-3.6,2.5-6.6c0.6-3,0.9-6.8,1.1-11.5l0.6-18h28.5v42h-4.4v-39.4l1.1,1.2h-22.4l1.1-1.3l-0.5,15.3c-0.2,4.2-0.5,7.8-0.9,10.9c-0.4,3.1-1.1,5.6-1.9,7.6c-0.8,2-1.9,3.5-3.2,4.5C641.4,735.9,639.8,736.4,637.9,736.4z M705.6,709.1c5,0,8.7,1.1,11.4,3.3c2.6,2.2,3.9,5.5,3.9,9.9c0,4.5-1.4,8-4.2,10.3c-2.8,2.3-6.8,3.5-12,3.5h-16.7v-42h4.4v15H705.6z M704.6,732.5c3.9,0,6.8-0.9,8.9-2.6c2-1.7,3-4.2,3-7.6s-1-5.8-3-7.4c-2-1.6-5-2.4-8.9-2.4h-12.2v19.9H704.6z M735.1,736.1h-4.4v-42h4.4V736.1z M761.8,716.7h-27.2v-3.9h27.2V716.7z M761.4,694.1h4.4v42h-4.4V694.1z M798.3,736.4c-3.2,0-6.1-0.5-8.8-1.6c-2.7-1.1-5-2.6-7-4.5c-2-1.9-3.5-4.2-4.6-6.8c-1.1-2.6-1.6-5.4-1.6-8.5c0-3.1,0.5-5.9,1.6-8.5c1.1-2.6,2.6-4.8,4.6-6.8s4.3-3.4,7-4.5c2.7-1.1,5.6-1.6,8.8-1.6c3.2,0,6.1,0.5,8.8,1.6c2.7,1.1,5,2.5,7,4.5c2,1.9,3.5,4.2,4.6,6.8c1.1,2.6,1.7,5.4,1.7,8.5c0,3.1-0.6,5.9-1.7,8.5c-1.1,2.6-2.6,4.9-4.6,6.8c-2,1.9-4.3,3.4-7,4.5C804.4,735.9,801.5,736.4,798.3,736.4z M798.3,732.5c2.5,0,4.8-0.4,7-1.3c2.1-0.9,4-2.1,5.6-3.7c1.6-1.6,2.8-3.4,3.7-5.5c0.9-2.1,1.3-4.4,1.3-6.9s-0.4-4.8-1.3-6.9c-0.9-2.1-2.1-3.9-3.7-5.5c-1.6-1.6-3.4-2.8-5.6-3.7c-2.1-0.9-4.5-1.3-7-1.3s-4.9,0.4-7,1.3c-2.2,0.9-4,2.1-5.6,3.7c-1.6,1.6-2.8,3.4-3.7,5.5c-0.9,2.1-1.4,4.4-1.4,6.9c0,2.5,0.5,4.8,1.4,6.9s2.1,4,3.7,5.5c1.6,1.6,3.4,2.8,5.6,3.7S795.8,732.5,798.3,732.5z M835.4,732.2h25.3v3.8H831v-42h28.8v3.8h-24.4V732.2z M834.9,712.8h22.2v3.8h-22.2V712.8z M886.2,736.1v-42h35.3v42h-4.4v-39.4l1.1,1.2h-28.9l1.1-1.2v39.4H886.2z M954.2,736.4c-3.2,0-6.1-0.5-8.8-1.6c-2.7-1.1-5-2.6-7-4.5c-2-1.9-3.5-4.2-4.6-6.8c-1.1-2.6-1.7-5.4-1.7-8.5c0-3.1,0.5-5.9,1.7-8.5c1.1-2.6,2.6-4.8,4.6-6.8c2-1.9,4.3-3.4,7-4.5s5.6-1.6,8.8-1.6c3.2,0,6.1,0.5,8.8,1.6s5,2.5,7,4.5s3.5,4.2,4.6,6.8c1.1,2.6,1.6,5.4,1.6,8.5c0,3.1-0.5,5.9-1.6,8.5c-1.1,2.6-2.6,4.9-4.6,6.8s-4.3,3.4-7,4.5C960.2,735.9,957.3,736.4,954.2,736.4z M954.2,732.5c2.5,0,4.8-0.4,7-1.3c2.1-0.9,4-2.1,5.6-3.7c1.6-1.6,2.8-3.4,3.7-5.5c0.9-2.1,1.3-4.4,1.3-6.9s-0.4-4.8-1.3-6.9c-0.9-2.1-2.1-3.9-3.7-5.5c-1.6-1.6-3.4-2.8-5.6-3.7c-2.1-0.9-4.5-1.3-7-1.3s-4.9,0.4-7,1.3c-2.2,0.9-4,2.1-5.6,3.7c-1.6,1.6-2.8,3.4-3.7,5.5c-0.9,2.1-1.4,4.4-1.4,6.9c0,2.5,0.5,4.8,1.4,6.9c0.9,2.1,2.1,4,3.7,5.5c1.6,1.6,3.5,2.8,5.6,3.7C949.3,732,951.6,732.5,954.2,732.5z M982.5,736.4c-0.6,0-1.1,0-1.6-0.1c-0.5-0.1-1.1-0.2-1.7-0.3l0.4-4c0.7,0.2,1.3,0.2,2,0.2c1.8,0,3.2-0.7,4.3-2.1c1.1-1.4,1.9-3.6,2.5-6.6c0.6-3,0.9-6.8,1.1-11.5l0.6-18h28.5v42h-4.4v-39.4l1.1,1.2h-22.4l1.1-1.3l-0.5,15.3c-0.2,4.2-0.5,7.8-0.9,10.9c-0.4,3.1-1.1,5.6-1.9,7.6c-0.8,2-1.9,3.5-3.2,4.5C986,735.9,984.4,736.4,982.5,736.4z M1051.1,736.4c-3.2,0-6.1-0.5-8.8-1.6c-2.7-1.1-5-2.6-7-4.5c-2-1.9-3.5-4.2-4.6-6.8c-1.1-2.6-1.7-5.4-1.7-8.5c0-3.1,0.5-5.9,1.7-8.5c1.1-2.6,2.6-4.8,4.6-6.8c2-1.9,4.3-3.4,7-4.5s5.6-1.6,8.8-1.6c3.2,0,6.1,0.5,8.8,1.6s5,2.5,7,4.5s3.5,4.2,4.6,6.8c1.1,2.6,1.6,5.4,1.6,8.5c0,3.1-0.5,5.9-1.6,8.5c-1.1,2.6-2.6,4.9-4.6,6.8s-4.3,3.4-7,4.5C1057.2,735.9,1054.3,736.4,1051.1,736.4z M1051.1,732.5c2.5,0,4.8-0.4,7-1.3c2.1-0.9,4-2.1,5.6-3.7c1.6-1.6,2.8-3.4,3.7-5.5c0.9-2.1,1.3-4.4,1.3-6.9s-0.4-4.8-1.3-6.9c-0.9-2.1-2.1-3.9-3.7-5.5c-1.6-1.6-3.4-2.8-5.6-3.7c-2.1-0.9-4.5-1.3-7-1.3s-4.9,0.4-7,1.3c-2.2,0.9-4,2.1-5.6,3.7c-1.6,1.6-2.8,3.4-3.7,5.5c-0.9,2.1-1.4,4.4-1.4,6.9c0,2.5,0.5,4.8,1.4,6.9c0.9,2.1,2.1,4,3.7,5.5c1.6,1.6,3.5,2.8,5.6,3.7C1046.3,732,1048.6,732.5,1051.1,732.5z M1081.8,736.1h-5.2L1092,713l3.8,2.2L1081.8,736.1z M1091.8,715.5l-14.1-21.5h4.8l13.3,20.8L1091.8,715.5z M1104.7,716.8h-12v-3.9h12V716.8z M1107.7,736.1h-4.3v-42h4.3V736.1z M1106.3,716.8v-3.9h12v3.9H1106.3z M1119.2,715.5l-4.1-0.7l13.4-20.8h4.8L1119.2,715.5z M1129.2,736.1l-14-20.9l3.8-2.2l15.4,23.1H1129.2z M1145.9,732.2h25.3v3.8h-29.7v-42h28.8v3.8h-24.4V732.2z M1145.4,712.8h22.2v3.8h-22.2V712.8z M1185.5,736.1h-4.4v-42h4.4V736.1z M1212.2,716.7H1185v-3.9h27.2V716.7z M1211.7,694.1h4.4v42h-4.4V694.1z M1230.3,736.1v-42h4.4v34.8l26.9-34.8h4v42h-4.4v-34.7l-26.9,34.7H1230.3z M1284.2,732.2h25.3v3.8h-29.7v-42h28.8v3.8h-24.4V732.2z M1283.7,712.8h22.2v3.8h-22.2V712.8z M137.6,839.5l0.1-13.3h44.9v13.3h-4.1v-9.4h-36.7l-0.1,9.4H137.6z M171.9,828v-36.1h-20.1l-0.4,10.2c-0.1,3.2-0.3,6.2-0.6,9.1c-0.3,2.9-0.7,5.5-1.2,7.8c-0.5,2.3-1.3,4.2-2.2,5.6c-0.9,1.4-2.1,2.3-3.5,2.5l-4.9-0.9c1.6,0.1,2.9-0.5,4-1.7c1.1-1.2,1.9-3,2.5-5.2c0.6-2.2,1-4.9,1.3-7.9c0.3-3,0.5-6.2,0.6-9.7l0.5-13.6h28.3V828H171.9z M188.6,830.4c-0.6,0-1.1,0-1.6-0.1c-0.5-0.1-1.1-0.2-1.7-0.3l0.4-4c0.7,0.2,1.3,0.2,2,0.2c1.8,0,3.2-0.7,4.4-2.1c1.1-1.4,1.9-3.6,2.5-6.6c0.6-3,0.9-6.8,1.1-11.5l0.6-18h28.5v42h-4.4v-39.4l1.1,1.2h-22.4l1.1-1.3l-0.5,15.3c-0.2,4.2-0.5,7.8-0.9,10.9c-0.4,3.1-1.1,5.6-1.9,7.6c-0.8,2-1.9,3.5-3.2,4.5C192.1,829.9,190.5,830.4,188.6,830.4z M264.1,830.1v-13.9l1.2,1.2h-13.7c-3.4,0-6.2-0.6-8.6-1.7c-2.4-1.2-4.2-2.8-5.5-5c-1.3-2.1-1.9-4.7-1.9-7.7c0-3.2,0.7-5.9,2-8.1c1.4-2.2,3.3-3.9,5.8-5c2.5-1.1,5.4-1.7,8.7-1.7h16.3v42H264.1z M235.6,830.1l10.3-14.8h4.6l-10.1,14.8H235.6z M264.1,814.9v-24.2l1.2,1.3h-13c-3.9,0-7,0.9-9.1,2.8c-2.1,1.9-3.2,4.6-3.2,8.1c0,3.4,1,6.1,3,8c2,1.9,5,2.8,8.9,2.8h13.4L264.1,814.9z M298.4,830.1v-42h4.3v42H298.4z M301.4,810.8v-3.9h13.1v3.9H301.4z M314.9,809.5l-4.1-0.7l15.7-20.8h4.8L314.9,809.5z M327.1,830.1L311,809.1l3.6-2.2l17.6,23.1H327.1z M357.4,830.4c-3.2,0-6.1-0.5-8.8-1.6c-2.7-1.1-5-2.6-7-4.5c-2-1.9-3.5-4.2-4.6-6.8c-1.1-2.6-1.6-5.4-1.6-8.5c0-3.1,0.5-5.9,1.6-8.5c1.1-2.6,2.6-4.8,4.6-6.8s4.3-3.4,7-4.5c2.7-1.1,5.6-1.6,8.8-1.6c3.2,0,6.1,0.5,8.8,1.6c2.7,1.1,5,2.5,7,4.5s3.5,4.2,4.6,6.8c1.1,2.6,1.6,5.4,1.6,8.5c0,3.1-0.6,5.9-1.6,8.5c-1.1,2.6-2.6,4.9-4.6,6.8s-4.3,3.4-7,4.5C363.5,829.9,360.6,830.4,357.4,830.4z M357.4,826.5c2.5,0,4.8-0.4,7-1.3c2.1-0.9,4-2.1,5.6-3.7c1.6-1.6,2.8-3.4,3.7-5.5c0.9-2.1,1.3-4.4,1.3-6.9s-0.4-4.8-1.3-6.9c-0.9-2.1-2.1-3.9-3.7-5.5c-1.6-1.6-3.4-2.8-5.6-3.7c-2.1-0.9-4.5-1.3-7-1.3s-4.9,0.4-7,1.3c-2.2,0.9-4,2.1-5.6,3.7c-1.6,1.6-2.8,3.4-3.7,5.5c-0.9,2.1-1.4,4.4-1.4,6.9c0,2.5,0.5,4.8,1.4,6.9s2.1,4,3.7,5.5c1.6,1.6,3.4,2.8,5.6,3.7S354.9,826.5,357.4,826.5z M390.1,830.1v-42h3.7l19.2,32.8H411l19-32.8h3.7v42h-4.3v-35.3h1l-17.5,30h-2.1l-17.6-30h1.1v35.3H390.1z M467.7,827.2c-5,0-9.3-0.7-12.8-2.1c-3.6-1.4-6.3-3.5-8.2-6.2c-1.9-2.7-2.9-6-2.9-9.8c0-3.8,1-7.1,2.9-9.8s4.7-4.8,8.2-6.2c3.6-1.4,7.8-2.2,12.8-2.2c0,0,0.1,0,0.3,0c0.2,0,0.3,0,0.5,0c0.2,0,0.3,0,0.3,0c5,0,9.3,0.7,12.9,2.2c3.6,1.4,6.3,3.5,8.2,6.2s2.9,6,2.9,9.8c0,3.8-1,7.1-2.9,9.8c-1.9,2.7-4.6,4.8-8.2,6.2c-3.6,1.4-7.8,2.1-12.8,2.1c-0.1,0-0.2,0-0.4,0s-0.4,0-0.5,0S467.7,827.2,467.7,827.2z M468.2,823.7c0.1,0,0.2,0,0.2,0c0.1,0,0.1,0,0.2,0c4.2,0,7.8-0.6,10.8-1.8c3-1.1,5.2-2.8,6.8-5c1.6-2.2,2.3-4.8,2.3-7.9c0-3.2-0.8-5.8-2.4-8c-1.6-2.2-3.8-3.8-6.8-5c-2.9-1.1-6.5-1.7-10.6-1.7c0,0-0.1,0-0.2,0c-0.1,0-0.2,0-0.3,0c-4.2,0-7.9,0.6-10.9,1.7s-5.3,2.8-6.9,4.9c-1.6,2.2-2.4,4.9-2.4,8c0,3.2,0.8,5.9,2.4,8.1c1.6,2.2,3.9,3.8,7,5C460.4,823.1,464,823.7,468.2,823.7z M466.2,831.5v-44.9h4.1v44.9H466.2z M521.3,830.4c-3.2,0-6.1-0.5-8.8-1.6c-2.7-1.1-5-2.6-7-4.5c-2-1.9-3.5-4.2-4.6-6.8c-1.1-2.6-1.6-5.4-1.6-8.5c0-3.1,0.5-5.9,1.6-8.5c1.1-2.6,2.6-4.8,4.6-6.8s4.3-3.4,7-4.5c2.7-1.1,5.6-1.6,8.8-1.6c3.2,0,6.1,0.5,8.8,1.6c2.7,1.1,5,2.5,7,4.5s3.5,4.2,4.6,6.8c1.1,2.6,1.6,5.4,1.6,8.5c0,3.1-0.6,5.9-1.6,8.5c-1.1,2.6-2.6,4.9-4.6,6.8s-4.3,3.4-7,4.5C527.4,829.9,524.4,830.4,521.3,830.4z M521.3,826.5c2.5,0,4.8-0.4,7-1.3c2.1-0.9,4-2.1,5.6-3.7c1.6-1.6,2.8-3.4,3.7-5.5c0.9-2.1,1.3-4.4,1.3-6.9s-0.4-4.8-1.3-6.9c-0.9-2.1-2.1-3.9-3.7-5.5c-1.6-1.6-3.4-2.8-5.6-3.7c-2.1-0.9-4.5-1.3-7-1.3s-4.9,0.4-7,1.3c-2.2,0.9-4,2.1-5.6,3.7c-1.6,1.6-2.8,3.4-3.7,5.5c-0.9,2.1-1.4,4.4-1.4,6.9c0,2.5,0.5,4.8,1.4,6.9s2.1,4,3.7,5.5c1.6,1.6,3.4,2.8,5.6,3.7S518.8,826.5,521.3,826.5z M553.9,830.1v-42h15.7c3.6,0,6.6,0.6,9.2,1.7c2.6,1.1,4.5,2.8,5.9,4.9c1.4,2.1,2.1,4.7,2.1,7.8c0,3-0.7,5.5-2.1,7.6c-1.4,2.1-3.4,3.8-5.9,5c-2.6,1.2-5.6,1.7-9.2,1.7h-13.3l2-2.1v15.4H553.9z M558.4,815.1l-2-2.2h13.1c4.2,0,7.4-0.9,9.6-2.7c2.2-1.8,3.3-4.4,3.3-7.7c0-3.4-1.1-6-3.3-7.8c-2.2-1.8-5.4-2.8-9.6-2.8h-13.1l2-2.1V815.1z M602.8,830.1v-39.4l1.2,1.2h-16v-3.8H622v3.8h-15.9l1.1-1.2v39.4H602.8z M634.2,830.1h-4.4v-42h4.4V830.1z M660.9,810.7h-27.2v-3.9h27.2V810.7z M660.5,788.1h4.4v42h-4.4V788.1z M697.4,830.4c-3.2,0-6.1-0.5-8.8-1.6c-2.7-1.1-5-2.6-7-4.5c-2-1.9-3.5-4.2-4.6-6.8c-1.1-2.6-1.6-5.4-1.6-8.5c0-3.1,0.5-5.9,1.6-8.5c1.1-2.6,2.6-4.8,4.6-6.8s4.3-3.4,7-4.5c2.7-1.1,5.6-1.6,8.8-1.6c3.2,0,6.1,0.5,8.8,1.6s5,2.5,7,4.5s3.5,4.2,4.6,6.8c1.1,2.6,1.6,5.4,1.6,8.5c0,3.1-0.5,5.9-1.6,8.5c-1.1,2.6-2.6,4.9-4.6,6.8s-4.3,3.4-7,4.5C703.5,829.9,700.6,830.4,697.4,830.4z M697.4,826.5c2.5,0,4.8-0.4,7-1.3c2.1-0.9,4-2.1,5.6-3.7c1.6-1.6,2.8-3.4,3.7-5.5c0.9-2.1,1.3-4.4,1.3-6.9s-0.4-4.8-1.3-6.9c-0.9-2.1-2.1-3.9-3.7-5.5c-1.6-1.6-3.4-2.8-5.6-3.7c-2.1-0.9-4.5-1.3-7-1.3c-2.5,0-4.9,0.4-7,1.3c-2.2,0.9-4,2.1-5.6,3.7c-1.6,1.6-2.8,3.4-3.7,5.5c-0.9,2.1-1.4,4.4-1.4,6.9c0,2.5,0.5,4.8,1.4,6.9s2.1,4,3.7,5.5c1.6,1.6,3.4,2.8,5.6,3.7S694.9,826.5,697.4,826.5z M730.1,830.1v-42h26.7v3.8h-23.5l1.1-1.1l0.1,39.3H730.1z M777.1,830.4c-3.2,0-6.1-0.5-8.8-1.6c-2.7-1.1-5-2.6-7-4.5c-2-1.9-3.5-4.2-4.6-6.8c-1.1-2.6-1.7-5.4-1.7-8.5c0-3.1,0.5-5.9,1.7-8.5c1.1-2.6,2.6-4.8,4.6-6.8c2-1.9,4.3-3.4,7-4.5s5.6-1.6,8.8-1.6c3.2,0,6.1,0.5,8.8,1.6s5,2.5,7,4.5s3.5,4.2,4.6,6.8c1.1,2.6,1.6,5.4,1.6,8.5c0,3.1-0.5,5.9-1.6,8.5c-1.1,2.6-2.6,4.9-4.6,6.8s-4.3,3.4-7,4.5C783.2,829.9,780.3,830.4,777.1,830.4z M777.1,826.5c2.5,0,4.8-0.4,7-1.3c2.1-0.9,4-2.1,5.6-3.7c1.6-1.6,2.8-3.4,3.7-5.5c0.9-2.1,1.3-4.4,1.3-6.9s-0.4-4.8-1.3-6.9c-0.9-2.1-2.1-3.9-3.7-5.5c-1.6-1.6-3.4-2.8-5.6-3.7c-2.1-0.9-4.5-1.3-7-1.3s-4.9,0.4-7,1.3c-2.2,0.9-4,2.1-5.6,3.7c-1.6,1.6-2.8,3.4-3.7,5.5c-0.9,2.1-1.4,4.4-1.4,6.9c0,2.5,0.5,4.8,1.4,6.9c0.9,2.1,2.1,4,3.7,5.5c1.6,1.6,3.5,2.8,5.6,3.7C772.3,826,774.6,826.5,777.1,826.5z M825.5,830.1v-42h35.3v42h-4.4v-39.4l1.1,1.2h-28.9l1.1-1.2v39.4H825.5z M875,830.1v-42h15.7c3.6,0,6.6,0.6,9.2,1.7c2.6,1.1,4.5,2.8,5.9,4.9c1.4,2.1,2.1,4.7,2.1,7.8c0,3-0.7,5.5-2.1,7.6c-1.4,2.1-3.4,3.8-5.9,5c-2.6,1.2-5.6,1.7-9.2,1.7h-13.3l2-2.1v15.4H875z M879.4,815.1l-2-2.2h13.1c4.2,0,7.4-0.9,9.6-2.7c2.2-1.8,3.3-4.4,3.3-7.7c0-3.4-1.1-6-3.3-7.8c-2.2-1.8-5.4-2.8-9.6-2.8h-13.1l2-2.1V815.1z M935.9,830.4c-3.2,0-6.1-0.5-8.8-1.6c-2.7-1.1-5-2.6-7-4.5c-2-1.9-3.5-4.2-4.6-6.8c-1.1-2.6-1.7-5.4-1.7-8.5c0-3.1,0.5-5.9,1.7-8.5c1.1-2.6,2.6-4.8,4.6-6.8c2-1.9,4.3-3.4,7-4.5s5.6-1.6,8.8-1.6c3.2,0,6.1,0.5,8.8,1.6s5,2.5,7,4.5s3.5,4.2,4.6,6.8c1.1,2.6,1.6,5.4,1.6,8.5c0,3.1-0.5,5.9-1.6,8.5c-1.1,2.6-2.6,4.9-4.6,6.8s-4.3,3.4-7,4.5C942,829.9,939.1,830.4,935.9,830.4z M935.9,826.5c2.5,0,4.8-0.4,7-1.3c2.1-0.9,4-2.1,5.6-3.7c1.6-1.6,2.8-3.4,3.7-5.5c0.9-2.1,1.3-4.4,1.3-6.9s-0.4-4.8-1.3-6.9c-0.9-2.1-2.1-3.9-3.7-5.5c-1.6-1.6-3.4-2.8-5.6-3.7c-2.1-0.9-4.5-1.3-7-1.3s-4.9,0.4-7,1.3c-2.2,0.9-4,2.1-5.6,3.7c-1.6,1.6-2.8,3.4-3.7,5.5c-0.9,2.1-1.4,4.4-1.4,6.9c0,2.5,0.5,4.8,1.4,6.9c0.9,2.1,2.1,4,3.7,5.5c1.6,1.6,3.5,2.8,5.6,3.7C931.1,826,933.4,826.5,935.9,826.5z M986.9,830.4c-3.2,0-6.1-0.5-8.8-1.6c-2.7-1.1-5-2.5-7-4.5s-3.5-4.2-4.6-6.8c-1.1-2.6-1.6-5.4-1.6-8.5c0-3.1,0.5-5.9,1.6-8.5c1.1-2.6,2.6-4.9,4.6-6.8s4.3-3.4,7-4.5c2.7-1.1,5.6-1.6,8.8-1.6c3,0,5.9,0.5,8.6,1.5c2.7,1,4.9,2.5,6.8,4.6l-2.8,2.8c-1.7-1.8-3.6-3-5.7-3.8c-2.1-0.8-4.3-1.2-6.7-1.2c-2.5,0-4.9,0.4-7,1.3c-2.2,0.9-4,2.1-5.6,3.7c-1.6,1.6-2.8,3.4-3.8,5.5c-0.9,2.1-1.3,4.4-1.3,6.9s0.4,4.8,1.3,6.9c0.9,2.1,2.1,3.9,3.8,5.5c1.6,1.6,3.5,2.8,5.6,3.7c2.2,0.9,4.5,1.3,7,1.3c2.4,0,4.6-0.4,6.7-1.2c2.1-0.8,4-2.1,5.7-3.8l2.8,2.8c-1.8,2-4.1,3.6-6.8,4.6C992.9,829.9,990,830.4,986.9,830.4z M1011.5,830.1v-42h3.7l19.2,32.8h-1.9l19-32.8h3.7v42h-4.3v-35.3h1l-17.5,30h-2.1l-17.6-30h1.1v35.3H1011.5z M1087.7,830.4c-3.2,0-6.1-0.5-8.8-1.6c-2.7-1.1-5-2.6-7-4.5c-2-1.9-3.5-4.2-4.6-6.8c-1.1-2.6-1.7-5.4-1.7-8.5c0-3.1,0.5-5.9,1.7-8.5c1.1-2.6,2.6-4.8,4.6-6.8c2-1.9,4.3-3.4,7-4.5s5.6-1.6,8.8-1.6c3.2,0,6.1,0.5,8.8,1.6s5,2.5,7,4.5s3.5,4.2,4.6,6.8c1.1,2.6,1.6,5.4,1.6,8.5c0,3.1-0.5,5.9-1.6,8.5c-1.1,2.6-2.6,4.9-4.6,6.8s-4.3,3.4-7,4.5C1093.8,829.9,1090.9,830.4,1087.7,830.4z M1087.7,826.5c2.5,0,4.8-0.4,7-1.3c2.1-0.9,4-2.1,5.6-3.7c1.6-1.6,2.8-3.4,3.7-5.5c0.9-2.1,1.3-4.4,1.3-6.9s-0.4-4.8-1.3-6.9c-0.9-2.1-2.1-3.9-3.7-5.5c-1.6-1.6-3.4-2.8-5.6-3.7c-2.1-0.9-4.5-1.3-7-1.3s-4.9,0.4-7,1.3c-2.2,0.9-4,2.1-5.6,3.7c-1.6,1.6-2.8,3.4-3.7,5.5c-0.9,2.1-1.4,4.4-1.4,6.9c0,2.5,0.5,4.8,1.4,6.9c0.9,2.1,2.1,4,3.7,5.5c1.6,1.6,3.5,2.8,5.6,3.7C1082.9,826,1085.2,826.5,1087.7,826.5z M1128.1,830.1v-39.4l1.2,1.2h-16v-3.8h33.9v3.8h-15.9l1.1-1.2v39.4H1128.1z M1155.1,830.1v-42h15.7c3.6,0,6.6,0.6,9.2,1.7c2.6,1.1,4.5,2.8,5.9,4.9c1.4,2.1,2.1,4.7,2.1,7.8c0,3-0.7,5.5-2.1,7.6c-1.4,2.1-3.4,3.8-5.9,5c-2.6,1.2-5.6,1.7-9.2,1.7h-13.3l2-2.1v15.4H1155.1z M1159.5,815.1l-2-2.2h13.1c4.2,0,7.4-0.9,9.6-2.7c2.2-1.8,3.3-4.4,3.3-7.7c0-3.4-1.1-6-3.3-7.8c-2.2-1.8-5.4-2.8-9.6-2.8h-13.1l2-2.1V815.1z M1188.7,830.1l19.2-42h4.4l19.2,42h-4.7l-17.6-39.4h1.8l-17.6,39.4H1188.7z M1196.3,818.8l1.3-3.6h24.4l1.3,3.6H1196.3z M1273.6,830.4c-3.2,0-6.1-0.5-8.8-1.6c-2.7-1.1-5-2.5-7-4.5s-3.5-4.2-4.6-6.8c-1.1-2.6-1.6-5.4-1.6-8.5c0-3.1,0.5-5.9,1.6-8.5c1.1-2.6,2.6-4.9,4.6-6.8s4.3-3.4,7-4.5c2.7-1.1,5.6-1.6,8.8-1.6c3,0,5.9,0.5,8.6,1.5c2.7,1,4.9,2.5,6.8,4.6l-2.8,2.8c-1.7-1.8-3.6-3-5.7-3.8c-2.1-0.8-4.3-1.2-6.7-1.2c-2.5,0-4.9,0.4-7,1.3c-2.2,0.9-4,2.1-5.6,3.7c-1.6,1.6-2.8,3.4-3.8,5.5c-0.9,2.1-1.3,4.4-1.3,6.9s0.4,4.8,1.3,6.9c0.9,2.1,2.1,3.9,3.8,5.5c1.6,1.6,3.5,2.8,5.6,3.7c2.2,0.9,4.5,1.3,7,1.3c2.4,0,4.6-0.4,6.7-1.2c2.1-0.8,4-2.1,5.7-3.8l2.8,2.8c-1.8,2-4.1,3.6-6.8,4.6C1279.6,829.9,1276.7,830.4,1273.6,830.4z M1291,830.1l19.2-42h4.4l19.2,42h-4.7l-17.6-39.4h1.8l-17.6,39.4H1291z M1298.5,818.8l1.3-3.6h24.4l1.3,3.6H1298.5z M1341.8,830.1v-42h4.4v34.8l26.9-34.8h4v42h-4.4v-34.7l-26.9,34.7H1341.8z M1359.3,785c-3,0-5.4-0.7-7.1-2c-1.7-1.4-2.6-3.3-2.7-5.7h3.3c0,1.6,0.6,2.9,1.8,3.8c1.2,0.9,2.7,1.4,4.6,1.4s3.5-0.5,4.7-1.4c1.2-0.9,1.8-2.2,1.8-3.8h3.3c0,2.4-0.9,4.3-2.7,5.7C1364.6,784.3,1362.3,785,1359.3,785z M1399.6,830.1v-39.4l1.2,1.2h-16v-3.8h33.9v3.8h-15.9l1.1-1.2v39.4H1399.6z M1418.2,830.1l19.2-42h4.4l19.2,42h-4.7l-17.6-39.4h1.8l-17.6,39.4H1418.2z M1425.8,818.8l1.3-3.6h24.4l1.3,3.6H1425.8z"/><path d="M798.2,400h-160c-18.7,0-33.3-14.7-33.3-33.3V33.3c0-18.7,14.7-33.3,33.3-33.3h160c18.7,0,33.3,14.7,33.3,33.3v333.3C831.5,385.3,816.8,400,798.2,400L798.2,400z M638.2,13.3c-10.7,0-20,9.3-20,20v333.3c0,10.7,9.3,20,20,20h160c10.7,0,20-9.3,20-20V33.3c0-10.7-9.3-20-20-20H638.2L638.2,13.3z M818.2,66.6H611.5c-4,0-6.7-2.7-6.7-6.7s2.7-6.7,6.7-6.7h206.7c4,0,6.7,2.7,6.7,6.7S822.2,66.6,818.2,66.6z M818.2,346.6H611.5c-4,0-6.7-2.7-6.7-6.7s2.7-6.7,6.7-6.7h206.7c4,0,6.7,2.7,6.7,6.7S822.2,346.6,818.2,346.6z M718.2,40h-13.3c-4,0-6.7-2.7-6.7-6.7s2.7-6.7,6.7-6.7h13.3c4,0,6.7,2.7,6.7,6.7S722.2,40,718.2,40z M771.5,40c-4,0-6.7-2.7-6.7-6.7s2.7-6.7,6.7-6.7s6.7,2.7,6.7,6.7S775.5,40,771.5,40L771.5,40z M664.8,373.3h-26.7c-4,0-6.7-2.7-6.7-6.7s2.7-6.7,6.7-6.7h26.7c4,0,6.7,2.7,6.7,6.7S668.8,373.3,664.8,373.3z M798.2,373.3h-26.7c-4,0-6.7-2.7-6.7-6.7s2.7-6.7,6.7-6.7h26.7c4,0,6.7,2.7,6.7,6.7S802.2,373.3,798.2,373.3z"/><path d="M964.8,400H758.2c-4,0-6.7-2.7-6.7-6.7s2.7-6.7,6.7-6.7h206.7c14.7,0,26.7-12,26.7-26.7v-160c0-14.7-12-26.7-26.7-26.7h-140c-4,0-6.7-2.7-6.7-6.7s2.7-6.7,6.7-6.7h140c22.7,0,40,17.3,40,40v160C1004.8,382.6,987.5,400,964.8,400z M944.8,400c-4,0-6.7-2.7-6.7-6.7v-220c0-4,2.7-6.7,6.7-6.7s6.7,2.7,6.7,6.7v220C951.5,397.3,948.8,400,944.8,400z M971.5,293.3c-4,0-6.7-2.7-6.7-6.7v-13.3c0-4,2.7-6.7,6.7-6.7s6.7,2.7,6.7,6.7v13.3C978.2,290.6,975.5,293.3,971.5,293.3z M971.5,346.6c-4,0-6.7-2.7-6.7-6.7s2.7-6.7,6.7-6.7s6.7,2.7,6.7,6.7S975.5,346.6,971.5,346.6z" opacity="0.5"/><path d="M957.2,126.8c0-31.8-25.5-57.3-57.3-57.3c-3.1,0-5.2-2.1-5.2-5.2s2.1-5.2,5.2-5.2c37.5,0,67.7,30.2,67.7,67.7c0,3.1-2.1,5.2-5.2,5.2S957.2,130,957.2,126.8z M901.5,99.2L870.3,68c-2.1-2.1-2.1-5.2,0-7.3s5.2-2.1,7.3,0l31.2,31.2c2.1,2.1,2.1,5.2,0,7.3c-1,1-2.1,1.6-3.6,1.6S902.5,100.3,901.5,99.2z M870.3,68c-2.1-2.1-2.1-5.2,0-7.3l31.2-31.2c2.1-2.1,5.2-2.1,7.3,0s2.1,5.2,0,7.3L877.6,68c-1,1-2.1,1.6-3.6,1.6S871.3,69,870.3,68z M868.7,64.3c0-3.1,2.1-5.2,5.2-5.2h26c3.1,0,5.2,2.1,5.2,5.2s-2.1,5.2-5.2,5.2h-26C870.8,69.5,868.7,67.5,868.7,64.3z"/></svg>