<svg xmlns="http://www.w3.org/2000/svg" width="400" height="400" viewBox="0 0 400 400" fill="white"><path d="M199.8,0C90.4,0,0,90.8,0,200c0,109.4,90.6,200,200,200c109.2,0,200-90.6,200-200C400,90.8,309,0,199.8,0z M200,248.6c0,4.7-3.8,8.6-8.6,8.6c-1.8,0-3.6-0.6-5.1-1.7c-0.1-0.1-0.2-0.1-0.2-0.2l-32.6-26.7h-24.9c-4.7,0-8.6-3.8-8.6-8.6v-40c0-4.7,3.8-8.6,8.6-8.6h24.9l32.6-26.7c0.1-0.1,0.2-0.1,0.2-0.2c3.8-2.8,9.2-2,12,1.8c1.1,1.5,1.7,3.2,1.7,5.1V248.6z M222.9,228.6c-3.2,0-5.7-2.6-5.7-5.7c0-0.9,0.2-1.8,0.6-2.6c3.4-6.7,5.1-13.6,5.1-20.3c0-6.9-1.7-13.5-5.1-20.3c-1.4-2.8-0.2-6.3,2.6-7.6c2.8-1.3,6.1-0.3,7.5,2.4c4.3,8.4,6.3,16.7,6.3,25.5c0,8.5-2.1,17.1-6.3,25.4C227,227.4,225,228.6,222.9,228.6z M240,245.7c-3.2,0-5.7-2.6-5.7-5.7c0-1,0.3-2,0.8-2.9c6.8-11.8,10.7-21.6,10.7-37.1c0-15.8-3.9-25.6-10.7-37.1c-1.6-2.7-0.6-6.2,2.2-7.8c2.7-1.5,6.1-0.6,7.7,2c7.5,12.9,12.2,24.6,12.2,42.9c0,18-4.7,29.7-12.2,42.9C243.9,244.6,242,245.7,240,245.7z M261.9,260.3c-1.1,1.6-2.9,2.6-4.8,2.6c-3.2,0-5.7-2.6-5.7-5.7c0-1.1,0.3-2.2,0.9-3.1c9.7-14.9,16.2-29.8,16.2-54c0-23.8-6.5-38.8-16.2-54.1c-1.7-2.7-0.9-6.2,1.7-7.9c2.7-1.7,6.2-0.9,7.9,1.7c10.8,17,18,33.7,18,60.2C280,223.1,274.8,240.6,261.9,260.3z"/></svg>