<svg xmlns="http://www.w3.org/2000/svg" viewBox="0 0 512 512" width="512" height="512">
<style type="text/css">
	.st0{opacity:0.9;fill:#rgba(11,12,15,1.0);enable-background:new;}
	.st1{opacity:0.95;fill:#rgba(11,12,15,1.0);enable-background:new;}
	.st2{opacity:0.85;fill:#rgba(11,12,15,1.0);enable-background:new;}
	.st3{fill:#rgba(11,12,15,1.0);}
	.st4{opacity:0.8;fill:#rgba(11,12,15,1.0);enable-background:new;}
	.st5{opacity:0.75;fill:#rgba(11,12,15,1.0);enable-background:new;}
	.st6{opacity:0.7;fill:#rgba(11,12,15,1.0);enable-background:new;}
	.st7{opacity:0.65;fill:#rgba(11,12,15,1.0);enable-background:new;}
	.st8{opacity:0.6;fill:#rgba(11,12,15,1.0);enable-background:new;}
	.st9{opacity:0.55;fill:#rgba(11,12,15,1.0);enable-background:new;}
	.st10{opacity:0.5;fill:#rgba(11,12,15,1.0);enable-background:new;}
	.st11{opacity:0.45;fill:#rgba(11,12,15,1.0);enable-background:new;}
	.st12{opacity:0.4;fill:#rgba(11,12,15,1.0);enable-background:new;}
	.st13{opacity:0.35;fill:#rgba(11,12,15,1.0);enable-background:new;}
	.st14{opacity:0.3;fill:#rgba(11,12,15,1.0);enable-background:new;}
	.st15{opacity:0.25;fill:#rgba(11,12,15,1.0);enable-background:new;}
	.st16{opacity:0.2;fill:#rgba(11,12,15,1.0);enable-background:new;}
	.st17{opacity:0.15;fill:#rgba(11,12,15,1.0);enable-background:new;}
	.st18{opacity:0.1;fill:#rgba(11,12,15,1.0);enable-background:new;}
	.st19{opacity:5.000000e-02;fill:#rgba(11,12,15,1.0);enable-background:new;}
</style>
<path class="st0" d="M247.6,479.6l-1.2,32.2c7.4,0.3,14.9,0.3,22.3-0.1l-1.5-32.1C260.7,479.9,254.1,479.9,247.6,479.6z"/>
<path class="st1" d="M208.8,474.8l-6.7,31.5c7.2,1.5,14.6,2.8,22,3.7l4-31.9C221.7,477.3,215.2,476.2,208.8,474.8z"/>
<path class="st2" d="M305.9,474.2c-6.3,1.5-12.8,2.6-19.2,3.5l4.3,31.9c7.4-1,14.8-2.3,22-4L305.9,474.2z"/>
<path class="st3" d="M171.4,463.3l-12.1,29.8c6.9,2.8,14,5.3,21.1,7.5l9.5-30.7C183.7,468,177.5,465.8,171.4,463.3z"/>
<path class="st4" d="M342.9,462.3c-6,2.5-12.1,4.8-18.3,6.8l9.9,30.6c7.1-2.3,14.1-4.9,21-7.8L342.9,462.3z"/>
<path class="st3" d="M136.9,445.5l-17.2,27.2c6.2,4,12.8,7.7,19.4,11.1l14.7-28.6C148,452.2,142.3,449,136.9,445.5z"/>
<path class="st5" d="M377.5,444c-5.5,3.5-11.2,6.9-16.9,9.9l15.1,28.4c6.6-3.4,13-7.3,19.3-11.3L377.5,444z"/>
<path class="st3" d="M105.7,421.9l-21.6,23.8c5.5,5,11.3,9.8,17.2,14.3l19.4-25.6C115.6,430.5,110.5,426.3,105.7,421.9z"/>
<path class="st6" d="M393.4,432.7l19.8,25.4c5.9-4.6,11.6-9.5,17-14.5L408.3,420C403.6,424.4,398.6,428.7,393.4,432.7z"/>
<path class="st3" d="M79.1,393.3L53.7,413c4.6,5.8,9.5,11.6,14.5,17l23.6-21.9C87.4,403.4,83.1,398.4,79.1,393.3z"/>
<path class="st7" d="M422,406l23.9,21.6c5-5.5,9.8-11.3,14.3-17.2L434.6,391C430.6,396.2,426.4,401.3,422,406z"/>
<path class="st3" d="M57.9,360.5l-28.4,15c3.5,6.6,7.3,13.1,11.3,19.3l27-17.5C64.3,371.8,61,366.2,57.9,360.5z"/>
<path class="st8" d="M445.6,375l27.2,17.1c4-6.3,7.7-12.8,11.1-19.4L455.3,358C452.4,363.8,449.1,369.5,445.6,375z"/>
<path class="st3" d="M42.7,324.5l-30.6,9.8c2.3,7.1,4.9,14.2,7.8,21l29.7-12.5C47.1,336.8,44.8,330.6,42.7,324.5z"/>
<path class="st9" d="M463.5,340.2l29.8,12.1c2.8-6.9,5.3-14,7.5-21.1l-30.8-9.4C468.1,328,465.9,334.2,463.5,340.2z"/>
<path class="st3" d="M34.2,286.4l-31.9,4.3c1,7.3,2.4,14.7,4,22l31.4-7.1C36.2,299.2,35.1,292.7,34.2,286.4z"/>
<path class="st10" d="M474.8,302.8l31.5,6.7c1.5-7.2,2.8-14.6,3.7-22l-31.9-3.9C477.3,290.1,476.2,296.6,474.8,302.8z"/>
<path class="st3" d="M0.2,246.1c-0.3,7.4-0.2,14.9,0.1,22.3l32.1-1.5c-0.3-6.5-0.4-13.1-0.1-19.6L0.2,246.1z"/>
<path class="st11" d="M479.7,264.1l32.1,1.2c0.3-7.4,0.3-14.9-0.1-22.3l-32.1,1.6C479.9,251,479.9,257.6,479.7,264.1z"/>
<path class="st3" d="M37,209.6L5.5,203c-1.5,7.3-2.7,14.7-3.6,22.1l31.9,3.8C34.6,222.5,35.6,216,37,209.6z"/>
<path class="st12" d="M477.7,225.1l31.9-4.4c-1-7.4-2.3-14.8-4-22l-31.4,7.2C475.7,212.2,476.8,218.7,477.7,225.1z"/>
<path class="st3" d="M48.2,172.3l-29.8-12c-2.7,6.9-5.2,14-7.4,21.1l30.8,9.4C43.7,184.5,45.9,178.3,48.2,172.3z"/>
<path class="st13" d="M469,187.1l30.6-9.9c-2.3-7.1-4.9-14.1-7.8-21l-29.6,12.6C464.7,174.7,467,180.9,469,187.1z"/>
<path class="st3" d="M66,137.6l-27.3-17.1c-3.9,6.4-7.6,12.9-11,19.5l28.7,14.6C59.3,148.8,62.6,143.1,66,137.6z"/>
<path class="st14" d="M453.8,151.2l28.4-15.1c-3.5-6.6-7.4-13.1-11.4-19.3l-27,17.5C447.4,139.7,450.7,145.4,453.8,151.2z"/>
<path class="st3" d="M89.5,106.3L65.6,84.8c-5,5.6-9.8,11.4-14.2,17.3l25.7,19.3C81,116.3,85.2,111.2,89.5,106.3z"/>
<path class="st15" d="M432.5,118.3l25.3-19.8c-4.5-5.8-9.4-11.5-14.5-17l-23.5,21.9C424.2,108.2,428.5,113.2,432.5,118.3z"/>
<path class="st3" d="M118,79.7L98.2,54.4c-5.8,4.5-11.6,9.4-17,14.5l22,23.5C108,88,113,83.7,118,79.7z"/>
<path class="st16" d="M405.8,89.7l21.6-23.9c-5.5-4.9-11.3-9.7-17.2-14.2l-19.4,25.7C396,81.2,401,85.4,405.8,89.7z"/>
<path class="st3" d="M133.9,68.3c5.5-3.5,11.2-6.9,16.9-9.9L135.7,30c-6.5,3.5-12.9,7.3-19.2,11.4L133.9,68.3z"/>
<path class="st17" d="M372.4,27.9l-14.7,28.6c5.8,3,11.5,6.3,17,9.7l17.1-27.3C385.5,35,379,31.3,372.4,27.9z"/>
<path class="st3" d="M176.9,12.6c-7.1,2.3-14.2,4.9-21,7.8L168.5,50c6-2.6,12.1-4.9,18.3-6.9L176.9,12.6z"/>
<path class="st18" d="M330.9,11.1l-9.4,30.8c6.2,1.9,12.4,4.1,18.4,6.5L352,18.6C345.1,15.8,338,13.3,330.9,11.1z"/>
<path class="st3" d="M220.4,2.5c-7.4,1-14.7,2.3-22,4l7.2,31.4c6.3-1.5,12.8-2.7,19.2-3.6L220.4,2.5z"/>
<path class="st19" d="M287.2,2l-3.9,31.9c6.5,0.8,13,1.9,19.3,3.2l6.7-31.5C302.1,4,294.6,2.8,287.2,2z"/>
<path class="st3" d="M242.7,0.4l1.6,32.1c6.5-0.3,13.1-0.3,19.6-0.1L265,0.2C257.5-0.1,250,0,242.7,0.4z"/>
</svg>