<svg xmlns="http://www.w3.org/2000/svg" width="32" height="32" viewBox="0 0 32 32" fill="rgb(21,50,50)"><path d="M31.9,24L31.9,24c-0.8-1.6-1.8-2.9-3-4.1c-0.8-1-2-2-2.4-2.5c-0.5-0.7-0.4-0.9,0-1.5c0,0,0,0.1-0.1,0.1l0.1-0.1c0,0,0,0,0,0c1.8-2.4,3.3-5.1,4.7-8.1c0.2-0.7,0-1.3-1.1-1.3h-3.5c0,0-0.1,0-0.1,0c-0.7,0-1.2,0.4-1.4,1l-0.1,0.2c-1.1,2.5-2.5,4.9-4.2,7c-0.8,0.8-1.2,1.1-1.6,1.1c-0.2,0-0.5-0.3-0.5-1v-7c0-0.9-0.3-1.3-1-1.3h-5.5c0,0,0,0,0,0c-0.5,0-0.8,0.4-0.8,0.8c0,0.8,1.3,1.1,1.4,3.4v5.2c0,1.1-0.2,1.3-0.6,1.3c-1.2,0-4.1-4.4-5.8-9.4C5.9,6.9,5.6,6.5,4.7,6.5H1.2c-1,0-1.2,0.5-1.2,1l0,0.2c1,4.3,2.9,8.2,5.5,11.4l0,0.1c2.3,3.6,6.1,6.1,10.7,6.4c2.2,0,2.5-0.5,2.5-1.4V21c0-1,0.2-1.2,0.9-1.2c0.5,0,1.4,0.3,3.5,2.3c2.4,2.4,2.8,3.5,4.1,3.5h3.5l0,0C31.7,25.5,32.2,25,31.9,24z"/></svg>