<svg class="bg_frontera" xmlns="http://www.w3.org/2000/svg" style="position: absolute; width: 0; height: 0; pointer-events: none; z-index: -9999;" aria-hidden="true">
    <defs>
      <clipPath id="bg_frontera_tres_grande">
<path d="M2599.5,29.5c-8.3,1.1-17.2-1.1-24.4,1.1c-4.7,1.1-7.3,2.7-9.4,1.1c-1-0.4,0-2.7-1-4.2
	c-2.1-3.4-2.6-6.1-3.1-9.1c-0.5-2.3-3.6-4.5-5.7-6.8c-0.5-0.8,0-2.3,0-2.3s-2.6-1.5-3.1-2.3c-0.5-1.5-0.5-4.2-0.5-4.2
	s-9.4-1.5-11.4,0c-16.1,12.9-48.4,37.1-48.4,37.1l-21.8-16.3l-17.2,1.9l-40.6,12.1c0,0-7.8,7.6-10.4,12.5h-2.1c-1-3.8-1-11.4-1-11.4
	s-7.8-5.3-7.8-4.5c-2.1,8-1.6,15.5-7.3,22.7c-0.5,0.4-2.6,0-2.6,0c-4.2-10.2,7.8-25.4-9.9-29.5c0,0.8,0,2.3,0,2.3s-2.6-0.4-2.6,0
	c-4.2,6.8-12,10.2-19.2,13.6c0-0.8,0-1.9,0-1.9c-4.2-0.8-9.4-1.5-12,0c-5.7,3-8.8,1.1-13,1.9c-2.6-9.1-6.8-15.9-15.6-20.4
	c-0.5-0.4,0.5-1.9,0-1.9c-2.1-0.8-4.2-0.8-6.2,0c-2.6,0.8-3.6,3-6.2,3.8c-5.2,1.9-15.6,5.3-15.6,5.3s-2.1,15.5-8.8,12.5
	c-1.6-0.8,0.5-6.8-1-7.6c-6.2-2.3-13.5-4.5-21.3-3c0-0.8,0.5-1.9,0-1.9c-5.7-2.3-8.3-3.4-6.2-4.9c-4.2,0-12.5,0.4-12.5,0.4
	s-5.7,4.9-9.4,6.1c-8.8,2.3-12.5-0.8-15.6-4.2c-0.5-0.4-3.1,0-3.1,0s-8.8,8.3-15.6,8.7c-1,0-2.1-1.1-3.1-1.9c0,0.8,0.5,1.5,0,2.3
	c-3.1,2.7-7.3,4.2-8.8,6.8c-1,2.7-3.6,4.5-3.6,4.5s-2.1,0-3.1,0c0-3.4,0.5-6.4-3.1-9.1c-3.6,3-8.8,6.8-11.4,4.2
	c-5.2-5.7-2.6-14.8-8.3-19.3c-5.2-3.4-21.3,5.3-21.3,5.3s-10.9,1.9-14.6,0c-4.7-1.9-9.9-1.1-9.9-1.1s-8.8,13.6-14.6,9.8
	c-3.1-1.9-9.4-7.2-9.4-7.2s-6.2,11.7-8.3,7.6c-4.2-6.4-6.2-14.8-12.5-21.6c-1.6-1.9-5.2,1.9-5.2,1.9s0.5,1.9,0,1.9
	c-2.1,0.8-4.2,0.8-6.2,0c-0.5,0,0.5-1.5,0-1.5c-2.1-0.8-4.7-0.8-5.7,0c-5.7,4.5-12,4.9-19.2,3.8v-1.5c-6.2-0.8-13.5-1.5-18.2,0.4
	c-8.3,3-15.6,8.3-25.5,8.3c1-4.5-3.6-5.3-6.8-6.1c-8.3-3-14.6,3-18.7,8.3c0,0.4-2.1-0.4-2.6,0c-1.6,2.3-2.1,4.5-3.1,6.8
	c-6.2-4.2-15.6-14-15.6-14s-1.6-3.4-3.1-3.8c-7.3-1.5-16.6,1.9-20.8-3c-2.1-1.9-2.1-3.4-4.2-4.2c-2.1-0.4-6.2,0.4-6.2,0.4
	s-8.8,6.8-13,10.6c-6.8,5.3-8.3,1.9-8.8,0.4c-0.5-3-0.5-8.7-0.5-8.7s-7.8-0.8-12,0c0,0,0.5,1.5,0,1.9c-2.6,1.5-5.7,2.7-9.4,2.3
	c0,0.8,0,2.3,0,2.3h-3.1c0,0-7.8,4.9-12.5,6.8c-1,0.4-3.1,0-3.1,0s-15.1,5.7-21.3,3.8c-8.3-2.3-9.4-11.4-19.2-12.5
	c-10.4-1.5-28.6,3.8-28.6,3.8l-21.3-3.8l-15.1,3.4c0,0-12-9.8-19.8-12.1c-6.8-2.3-23.9,0-23.9,0s-8.3,4.9-13,5.7
	c-3.6,0.4-6.8-1.9-9.4-4.2c-0.5-0.4-3.1,0-3.1,0s0.5,1.5,0,2.3c-3.1,2.7-6.2,4.5-9.4,6.8c0-0.8,0-1.9,0-1.9c-5.2-0.8-15.1,0-15.1,0
	l-17.7,5.7l-10.9-14.8h-5.7c0,0-20.8,18.2-31.2,14.4c-1.6-0.4-0.5-6.4-6.8-5.3c-6.8,1.5-6.8,12.1-15.1,8.3c-3.6-1.9-7.3-8-7.3-8
	l-25,3l-27.6,0.4c0,0-12.5-8.7-19.2-12.5c-3.6-1.9-10.9-1.9-14.6,0c-7.3,3.4-15.1,3-22.4,4.2c-3.6,0.8-9.4,6.1-9.4,6.1
	s-7.3-0.4-9.9-1.5c-3.1-1.1-8.8-1.5-11.4,0c-7.3,5.3-25.5,12.9-25.5,12.9s-8.8-6.1-12.5-5.3c-8.3,1.1-16.6,2.7-20.8,0
	c-8.8-5.3-14.6-23.9-14.6-23.9s-7.3-6.4-11.4-4.5c-13.5,7.6-21.3,23.5-40.6,17.8c-4.7-1.1-8.3-3-12.5-1.9c-3.1,1.1-4.2,3-3.1,4.5
	c-2.1,0-4.7,0.4-5.7-0.4c-5.2-2.7-10.9-5.7-15.6-3.8c-10.4,3.4-10.9,12.5-19.2,17.8c-1,0.4-2.6,0-2.6,0c-1.6-12.9-12-12.9-18.7-10.6
	c-7.8,1.9-2.6,6.8-4.2,10.6c0,0-2.1-0.4-2.6,0c-6.2,7.2-15.1,13.6-16.6,22.7c-0.5,0.8-5.2-2.3-5.2-2.3v-2.3c0,0-4.2-1.9-6.2-1.9
	c-9.9,0.4-24.4-7.6-24.4-7.6s-3.1-14.4-13-15.1c-7.3-0.8-14.6,0.4-21.8-0.8c-9.4-1.9-19.2-12.9-19.2-12.9l-27-1.9
	c0,0-9.4,6.8-14,9.8c-7.8,5.7-13.5,10.2-17.7,16.7c-8.3-6.8-19.2-22.7-19.2-22.7l-8.8-6.1c0,0-7.3,3.4-9.9,5.7c-0.5,0.8-5.2,0-5.2,0
	s0-3.4-1-3.8c-2.1-1.1-6.2-1.1-8.3,0c-8.3,3.8-10.9,12.9-19.8,14.8c-4.7,0.8-7.8-2.3-5.7-3.8c-12.5-6.4-20.3,0.8-27.6,6.8
	c0-0.8,0-1.9,0-1.9c-7.3-2.3-9.4-5.7-12.5-9.5c-0.5-0.4-2.1,0-3.1,0c0.5,5.3-3.6,3.4-6.2,4.5c0-0.8,0-1.5,0-2.3
	c-9.9,0.4-28.1,4.5-28.1,4.5l-21.3,12.5c0,0-6.2-11.7-10.9-16.3c-2.1-1.9-9.4-1.1-14.6-0.4c0,0,0.5,1.5,0,1.5
	c-2.1,0.8-4.2,0.4-6.2,0.4c0.5-2.7-1-4.2-3.1-4.2c-3.6-0.8-6.8-0.4-9.9,1.5c-1.6,1.1-7.3,1.1-8.3,0c-9.9-11.7-28.6-5.7-28.6-5.7
	s-10.9,11.4-18.2,7.6c-1-0.8-1.6-3.4-3.6-3.4c-4.2-0.8-12,0-12,0s-4.2,7.2-3.6,11c-2.1-3.8-9.4-8.7-9.4-8.7s-11.4-1.5-15.1,0.4
	c-1.6,0.4,0,3.8-1,6.1c0,0-1.6,0.4-2.6,0c-6.2-3-7.3-11.7-15.6-8.7c-2.6,1.1-4.2,2.7-6.2,1.9c0,0.8,0.5,1.9,0,1.9
	c-2.1,0.8-4.2,0.8-6.2,0c-0.5,0,0.5-1.5,0-1.9c-5.2-3.4-10.9-3-15.6-1.9c-6.2,1.9-1.6,5.7-3.1,8.7c-2.1-2.3-5.7-2.7-5.7-2.7
	s-18.2-6.8-28.6-6.4c0.5-2.7-1-4.9-3.1-6.8c-0.5-0.4-3.1,0-3.1,0V14c0,0-2.1,0-3.1,0c1,5.3-6.2,10.6-6.2,10.6s-4.2-2.3-3.1-3.8
	c-13-1.5-13.5,3-15.6,6.8c-0.5,1.5,0.5,3,0,4.5c-0.5,0.8-2.1,1.5-3.1,2.3c0-2.3,1-4.9-0.5-6.4c-0.5-0.8-4.7-0.8-5.2,0
	c-4.2,5.3-9.4,12.5-14.6,8c-3.1-3-7.8-8-7.8-8s-6.2-0.8-9.4,0v1.9c0,0-2.1,0-3.1,0c0.5-5.3-3.6-3.4-6.2-4.5c0.5,5.3-4.7,4.5-5.7,4.2
	c-7.8-3.8-5.7-16.3-15.1-10.2c-2.6,1.9-4.2,7.2-7.8,10.2c-1,0.8-4.2,0.8-5.2,0c-8.3-4.5-25-8.3-25-8.3s0,2.7-0.5,4.2
	c-1.6,2.3-6.2,2.3-6.2,2.3s0.5-1.9,0-1.9c-3.6-1.5-5.7,0.4-5.7,1.9c-0.5,4.5-4.7,7.6-7.3,11.4c0,0.4-2.1,0.4-2.6,0
	c-1.6-2.3-1.6-4.5-3.1-6.8c-6.8-7.6-10.4-15.1-16.6-22.3c-0.5-1.1-5.2-0.8-8.3,0c0,0,0.5,1.5,0,1.9c-8.8,4.2-5.7,7.6-6.2,11.4
	c-8.8-1.1-28.6-0.8-28.6-0.8s-20.3,0.8-30.7,0.8c1,4.5-6.8,6.4-6.8,6.4s-9.9-0.4-15.1,0.8c-3.1,0.4-4.2,2.7-3.1,4.2
	c-4.2,0-12-0.4-12-0.4s-25.5-18.2-44.2-15.1c0,0,0.5,1.5,0,1.5c-2.1,0.8-5.7,0-5.7,0L262.6,7.9l-14,1.5l-10.9,10.2l-49.4,1.5
	c0,0-3.1,8.7-4.7,6.1c-3.1-4.5-7.3-8.7-14-6.1c-4.2,1.9-6.8,4.9-6.2,8.7c-1-0.8-2.6-1.5-3.1-2.3c-4.7-13.3-8.3-4.9-12.5-6.8
	c0.5,3.8-0.5,8.3-6.2,8.3c-3.1,0.4-4.2-4.9-6.8-5.3c-13-3.4-11.4,8.7-16.1,12.5c-1.6,1.5-7.3,1.1-11.4,0
	c-16.1-3.8-46.3-0.8-46.3-0.8s-22.4,2.3-31.2,0C19.4,32.5,9.7,29.1,0,25.4V60v4440h2600V60V29.4
	C2599.8,29.4,2599.7,29.5,2599.5,29.5z"/>
      </clipPath>
    </defs>
  </svg>
