<svg class="bg_frontera" xmlns="http://www.w3.org/2000/svg" style="position: absolute; width: 0; height: 0; pointer-events: none; z-index: -9999;" aria-hidden="true">
    <defs>
      <clipPath id="bg_frontera_dos_min">
<path d="M1021.6,11.1l-0.9,0v-0.7l-0.5-0.1l-5.2-0.8l0,0c0,0,0.5-2.6-1-2.9c-5.6-0.8-20.7-0.2-20.7-0.2l-0.4,0.1
	L992.7,7l-0.1,0c0,0-6.7,2.5-11.9,1.4c-1-0.1,0-1.2-1-1.3c-2-0.4-8.3-0.1-8.3-0.1l-0.5,0.1l-3.7,4.6l0,0l-8.4,3.9l-0.7,0l-3.4-5.9
	l-0.5-0.1h-13.2l-0.4,0.1c0,0-4.3,1.7-7.1,2c-1.6,0.3-4.7,0-5.7,0.3c-8,1.8-25.3,2.1-25.3,2.1l-0.2,0l-28.9-4.5l-0.1,0l-4.7-0.8
	l-0.8,0c0,0-1.4,1.2-2.8,1.3c-6.1,0.4-18.3,0.2-18.3,0.2l-0.4,0.1v0.4L846,11h-2.1l-0.5,0.1v0.6l-0.4,0.1c0,0-2.3,0.1-2.7,0
	c-7.1-1.7-12.6-6.2-12.6-6.2l-0.5-0.2h-1.9l-0.5-0.1l-3.1-2.2l-0.4,0h-8.6l-0.5,0.1c0,0-3.8,1.5-6.8,2.1c-1,0.2-5.2,0.1-5.2,0.1
	l-0.5,0.1l-6,3.6l-0.8,0l-8.4-2.1h-0.7c0,0-10,2.7-9.5,4.7c0,0.2-1.7,0.6-1.7,0.6l-0.8-0.1c0,0,0.2-0.4-0.1-0.5
	c-5.2-0.9-6.2-3.2-6.2-3.2l-0.1,0l-2.5,0l-0.5-0.1l-5.7-2.6l-0.8,0c0,0-5.5,2.8-9.6,3.3c-4.1,0.4-12.4,1.6-12.4,1.6l-0.1,0l-8.7,1.8
	l-0.1,0c0,0,0.5,0.6,0,0.6c-2.1,0.3-4.7,0.3-5.7,0c-10.4-2-28.5-5.9-28.5-5.9l0,0c0,0-20.7-0.4-28-2.6c-0.4-0.1-2.9,0-2.9,0
	l-0.3,0.1l-19.6,7.1c0,0-5.7,2.1-8.3,1.4c-7.2-1.7-27.2-5.1-27.2-5.1l-0.6,0l-12.6,4.4l0,0c0,0,0,0.5,0,0.8c-0.1-0.3,0-0.5,0-0.8
	c0.1-1-0.5-3.1-0.5-3.1l-0.5-0.1h-1.7l-0.5-0.1l-3-1.4l-0.3,0h-2.4L582.1,8c0,0-4.4,4.3-12.5,3.7c-6.7-0.6-6.7-3-6.7-3l-0.1-0.1
	l-14.4-3.2l-0.5-0.1l-0.5-1.2L547,4l-4.8-0.1L541.6,4l-9.8,4.5l-0.2,0c0,0-3.7,0.2-5.6,0c-0.4,0-0.1-0.4-0.1-0.4L525.6,8l-15,0
	l-0.1,0l-5.6,0.7l-0.6,0.1v0.5l-0.5,0.1H502l-0.5-0.1l-0.9-2.1l-0.4-0.1c0,0-10.9-0.6-14.1-1.2c-6.7-1.1-10.9-0.5-16.1-0.4
	c-2.8,0.1-3.4,1.3-3.4,1.3l-0.5,0.2l-8-0.1l-0.1,0c0,0-22.5-1.8-31.1-1c-3.6,0.3-6.2,1.8-9.3,2.9c-1,0.3,0,1.2-1,1.3
	c-2.3,0.5-5.6-0.5-5.6-0.5l-0.3,0c0,0-6.8-0.3-8.6,0c-5.2,1.1-9.9,2.1-15.6,1.3c-1-0.1,0-1.2-1-1.3c-2-0.4-8.5,0-8.5,0l-0.3,0.1v0.5
	l-0.2,0.1c0,0-2.4,0.5-2.4,0.8c-0.5,1.3-0.5,2.1-3.6,2.4c-1.9,0.1-5.5,0-5.5,0l-0.2-0.1L336.9,7l-0.5-0.1L330,4l-0.4-0.1
	c0,0-2.2-0.1-2.6,0c-6.8,1.5-13.4,6.3-13.4,6.3l-0.3,0.1l-7.4,0.9l-0.3,0.1l-0.4,1.1l-0.9,0.1l-12.1-6.7l0,0L283.9,4l-0.7,0
	l-2.9,2.1l-0.5,0.1c0,0-3.8,0.1-5.7-0.1c-0.5,0,0.1-0.6,0.1-0.6l-0.1,0L261.7,4l-0.1,0c0,0-9.3,1.2-8.8,2.2c0.5,2.3-6.4,5.3-6.4,5.3
	l-0.8,0l-8.8-0.6l-0.1,0l-2,0.5l-0.8-0.1l-9.5-3.3l-0.1,0l-12.4,3.6l-0.5,0.1h-5.2l-0.5-0.1l-6.2-2.2l-0.1,0l-2.4,0l-0.5-0.1
	c0,0-1.2-2.6-3.7-2.8c-10.4-0.7-22.3-1.1-31.6,1.8c-4.5,1.3-8-2-8-2l-0.7,0l-3,1.3l-0.5,0.2h-1.8l-0.5-0.1c0,0,0.3-0.6-0.1-0.6
	c-3.9-0.9-3.2-2.2-3.2-2.2l-0.5-0.1h-5.1l-0.5,0.1c0,0-0.2,2.2-3.7,2.9c-0.9,0.2-5.2,0.1-5.2,0.1L128,7.7c0,0-3.8-4.1-9.4-4.2
	c-7.8-0.4-17.1,0-24.4,0.7C86.4,5,81.2,4.4,75,4.6c-1,0-3.1-0.6-3.1-0.6l0,0c0,0-3.1-4.6-8.8-3.8C58.9,0.7,58.9,3,58.9,3l0,0
	L47.1,5.5l-0.3-0.1c0,0,0.6-0.6,0.1-0.6c-5.1-0.7-6.7-1.5-6.7-1.5l-0.4-0.2l-5.2,0l-0.1,0l-3.5,1.5l-0.1,0.1c0,0-5.8,1.5-8.7,1.4
	C16.2,5.8,5.8,4.6,0,3.9V20v2980h1024V20V8.3L1021.6,11.1z"/>
      </clipPath>
    </defs>
</svg>
