<svg class="bg_frontera" xmlns="http://www.w3.org/2000/svg" style="position: absolute; width: 0; height: 0; pointer-events: none; z-index: -9999;" aria-hidden="true">
    <defs>
      <clipPath id="bg_frontera_dos_grande">
<path d="M2580.8,42.8c-0.9,0-3,1.4-3,1.4l-0.4,0.1h-2.4l-0.5,0.3V46l-0.5,0.3h-2.1l-0.5-0.3c0,0,0.3-1.3-0.1-1.5
	c-3-2.1-6.4-5.3-6.4-5.3l-0.3-0.4l-14.6-1.8l-0.6-0.3c0,0,0.5-8.5-0.5-12.7c0-0.5-2.3-1.5-2.3-1.5l-0.5,0l-2.8,1.4l-0.1,0.1
	c0,0,0.5,2.8-0.5,3.7c-10.9,10.9-8.3,21.4-13.5,31.3c-1,1.5-6.8-3.4-6.8-3.4l0,0l-19.2-11.1l-0.6,0.3V46l-0.5,0.3h-2l-0.5,0.3
	l-0.1,1.5l-0.1,0.1l-5.7,3.4l-0.8-0.1l-12.6-14.1l-0.2-0.1l-21.6-6.4l-0.3,0L2441,32l-0.3,0.1c0,0-13.4,6.9-22.2,4.6
	c-4-1.2-6.3-6.7-6.3-6.7l-0.6-0.3l-11,1.7l-0.4,0.2l-2.6,7.5l-1-0.1v-1.7l-0.5-0.3l-5.2-1.9l0,0c0,0,0.5-6.2-1-6.8
	c-5.6-1.8-20.8-0.4-20.8-0.4l-0.4,0.3l-0.1,1.2l-0.1,0.1c0,0-6.7,5.8-11.9,3.4c-1-0.3,0-2.8-1-3.1c-2-0.9-8.3-0.3-8.3-0.3l-0.5,0.3
	l-3.7,10.9l0,0l-8.4,9.1l-0.7-0.1l-3.4-14l-0.5-0.3h-13.2l-0.4,0.1c0,0-4.4,4-7.1,4.8c-1.6,0.6-4.7,0-5.7,0.6c-8,4.2-25.4,5-25.4,5
	l-0.2,0l-29-10.5l-0.1-0.1l-4.7-1.9l-0.8,0.1c0,0-1.4,2.8-2.8,3c-6.1,0.9-18.3,0.6-18.3,0.6l-0.4,0.3v1l-0.5,0.3h-2.1l-0.5,0.3v1.3
	l-0.4,0.3c0,0-2.3,0.2-2.7,0c-7.1-4-12.7-14.5-12.7-14.5l-0.5-0.4h-1.9l-0.5-0.3l-3.1-5.2l-0.4-0.1h-8.6l-0.5,0.3c0,0-3.8,3.4-6.8,5
	c-1,0.6-5.2,0.3-5.2,0.3l-0.5,0.3l-6,8.6l-0.8,0.1l-8.5-5l-0.7,0c0,0-10,6.4-9.5,11c0,0.4-1.7,1.3-1.7,1.3l-0.8-0.3
	c0,0,0.2-0.9-0.1-1.1c-5.2-2.2-6.2-7.4-6.2-7.4l-0.1,0l-2.5,0l-0.5-0.3l-5.7-6.2l-0.8,0.1c0,0-5.6,6.6-9.6,7.7
	c-4.1,0.9-12.4,3.7-12.4,3.7l-0.1,0l-8.7,4.3l-0.1,0.1c0,0,0.5,1.5,0,1.5c-2.1,0.6-4.7,0.6-5.7,0c-10.4-4.7-28.6-14-28.6-14l0,0
	c0,0-20.8-0.9-28.1-6.2c-0.4-0.3-2.9,0-2.9,0l-0.3,0.1L2015,40.7c0,0-5.7,5-8.3,3.4c-7.2-4-27.3-12-27.3-12l-0.6,0l-12.7,10.4l0,0
	c0,0,0,1.2,0,1.8c-0.1-0.6,0-1.2,0-1.8c0.1-2.4-0.5-7.2-0.5-7.2l-0.5-0.2h-1.7l-0.5-0.3l-3-3.4l-0.3-0.1h-2.4l-0.5,0.3
	c0,0-4.4,10.2-12.6,8.7c-6.7-1.4-6.8-7-6.8-7l-0.1-0.2l-14.4-7.4l-0.5-0.3l-0.5-2.9l-0.4-0.2l-4.8-0.3l-0.5,0.3l-9.8,10.5l-0.2,0.1
	c0,0-3.7,0.5-5.6,0c-0.4,0-0.1-1-0.1-1l-0.4-0.3l-15.1,0.1l-0.1,0l-5.6,1.7l-0.6,0.3v1.2l-0.5,0.3h-1.8l-0.5-0.2l-0.9-4.8l-0.4-0.3
	c0,0-10.9-1.4-14.2-2.7c-6.8-2.5-10.9-1.2-16.1-0.9c-2.8,0.3-3.4,3-3.4,3l-0.5,0.4l-8.1-0.3l-0.1,0c0,0-22.6-4.3-31.2-2.5
	c-3.6,0.6-6.2,4.3-9.4,6.8c-1,0.6,0,2.8-1,3.1c-2.3,1.1-5.6-1.2-5.6-1.2l-0.3-0.1c0,0-6.8-0.8-8.7,0c-5.2,2.5-9.9,5-15.6,3.1
	c-1-0.3,0-2.8-1-3.1c-2-0.9-8.5-0.1-8.5-0.1l-0.3,0.3v1.2l-0.2,0.2c0,0-2.4,1.3-2.4,1.8c-0.5,3.1-0.5,5-3.6,5.6
	c-1.9,0.3-5.5,0.1-5.5,0.1l-0.2-0.2l-27.9-14.8l-0.5-0.3l-6.3-6.8l-0.4-0.3c0,0-2.2-0.3-2.7,0c-6.8,3.5-13.5,14.8-13.5,14.8
	l-0.3,0.2l-7.4,2.1l-0.3,0.2l-0.4,2.5l-0.9,0.2l-12.2-15.9l0,0l-8.4-3.8l-0.7,0.1l-2.9,5l-0.5,0.3c0,0-3.8,0.3-5.7-0.3
	c-0.5,0,0.1-1.5,0.1-1.5l-0.1-0.1l-12.4-3.4l-0.1,0c0,0-9.3,2.8-8.8,5.3c0.5,5.4-6.4,12.6-6.4,12.6l-0.8,0l-8.8-1.5l-0.1,0l-2,1.2
	l-0.9-0.2L1598,32l-0.1,0l-12.5,8.4l-0.5,0.3h-5.2l-0.5-0.3l-6.2-5.2l-0.1-0.1l-2.5,0l-0.5-0.3c0,0-1.2-6.2-3.7-6.5
	c-10.4-1.6-22.4-2.5-31.7,4.3c-4.6,3-8-4.7-8-4.7l-0.7-0.1l-3,3.2l-0.5,0.4h-1.8l-0.5-0.3c0,0,0.3-1.3-0.1-1.5
	c-3.9-2-3.2-5.2-3.2-5.2l-0.5-0.3h-5.1l-0.5,0.3c0,0-0.2,5.3-3.7,6.8c-1,0.6-5.2,0.3-5.2,0.3l-0.5-0.3c0,0-3.8-9.6-9.4-9.9
	c-7.8-0.9-17.2,0-24.4,1.6c-7.8,1.9-13,0.6-19.2,0.9c-1,0-3.1-1.5-3.1-1.5l0-0.1c0,0-3.1-10.8-8.8-9c-4.1,1.5-4.2,6.8-4.2,6.8l0,0
	l-11.8,5.9l-0.3-0.2c0,0,0.6-1.4,0.1-1.4c-5.1-1.7-6.8-3.6-6.8-3.6l-0.4-0.4l-5.2,0l-0.1,0l-3.6,3.6l-0.1,0.2c0,0-5.9,3.6-8.7,3.3
	c-8.5-1.2-26.5-6.5-26.5-6.5l-0.1,0c0,0-13.2-1.2-20.2-0.3c-3.1,0.3-3.1,2.2-3.6,3.4c-0.5,1.5-5.3,3.5-5.3,3.5l-0.7,0
	c0,0-11.8-6.8-17.9-4.7c-1.5,0.6-1,6.6-1,6.6l-0.5,0.2h-1.7l-0.5-0.3l-24.1-11.7l-0.6,0.2l-18.5,9.7l-0.4-0.3l-0.1-1.2l-0.1-0.1
	c0,0-10.9-5.2-15-3.1c-5.2,2.2-7.3,10.5-7.3,10.5l0,0.1c0,0-4.2,3.4-5.7,3.1c-4.7-0.6-6.8-4.3-9.9-6.5c-6.8-4.3-16.1-2.5-21.3,1.6
	c-0.4,0.3-2.9,0-2.9,0l-0.3-0.1l-18-6.7l-0.1,0l-3.5,3.1l-0.1,0l-5.6,0l-0.5-0.3l-3.1-3.4l-0.1,0l-5.7,0l-0.5,0.3c0,0-1.2,5-3.7,7.1
	c0,0.3-2.5,0-2.5,0l-0.1-0.1c0,0-6.7-7.7-12.4-8.7c-2.4-0.3-3.3,2.8-3.3,2.8l-0.3,0.4l-14.1-2.9l-0.8,0.1l-3.4,6.2l-0.5,0.3
	l-8.4-0.2l-0.3-0.3c0,0,0.3-1.1-0.1-1.3c-3.8-2-12.3-1.6-12.3-1.6l-0.3,0.1l-5.7,2.9l-0.7,0c0,0-3.8-2.6-5.9-2.9
	c-0.5-0.3-2.6,0.9-2.6,1.6c-1,3.4-5.7,9.6-5.7,9.6l-6.9,9.4l-0.9,0c0,0-14.6-13.5-22.9-8.8c-8.2,4.3-4.7,19.2-4.7,19.2l-0.5,0.3
	h-8.3l-0.5-0.3l-12.6-22l0,0l-0.5-3.1l-0.5-0.3l-11-0.3l-0.5,0.3l-9.1,4.9l-0.8,0.1l-5.6-3.4l-0.1-0.1c0,0,0.5-1.2,0-1.8
	c-2.5-2.4-6.3-7.1-6.3-7.1l-0.5-0.3l-8.4,0.2l-0.3,0.3v0.8l-0.3,0.3c0,0-6.5,0.8-8.5-0.1c-4-1.5-6.9-6.9-6.9-6.9l-0.4-0.3
	c0,0-10.6-3-14.6-1.2c-9.3,3.7-18.6,16-18.6,16l-0.5,0.2c0,0-33-10.9-43.9-20.1c-2.8-2.2-14.2-3.7-14.2-3.7l-0.5,0.2l-6.5,11.6
	l0.3,0.3l0.4,0.1l-0.2,0.6l-0.5-0.3l0-0.3l-0.2-0.3l-9.6-8.4l-0.3-0.2c0,0-4.5-0.2-5,0.4c-5.7,4-5.2,9.9-7.8,14.3
	c-0.5,1.2-4.7-0.3-4.7-1.6c-1-4.7-13-7.5-13-7.5l0,0c0,0-2.1,4.3-3.6,5.3c-2.1,1.5-5.7-1.2-5.7-1.2l-0.1,0L796.9,29l-0.8,0.1
	c0,0-17.3-7.5-24.9-12.4c-5.6-3.3-20.8-2.4-20.8-2.4l-0.4-0.3c0,0,0.3-1.1-0.1-1.3c-5.2-2.8-12.5-2.8-14.6-1.2
	c-3.4,2-3.3,9.8-3.3,9.8l-0.9-0.2v-0.4l-0.4-0.3c0,0-8.6-0.8-11.6,0.1c-2.4,0.9-3.4,4.9-3.4,4.9l-0.8,0.2l-2.8-3.1l-0.4-0.4
	c0,0-8.3-0.6-11.8,0.3c-2.5,0.4-3.7,2.1-3.7,2.1l0,0.1c0,0,0.7,1.9,0.5,3c-0.3-0.9-0.6-3-0.6-3l0-0.1c0,0-3.2-3.2-5.6-4
	c-1.2-0.5-5.3-0.1-5.3-0.1l-0.4,0.3L682,31l-0.8-0.2l-15-8.6l-0.6,0.3l-2.1,5.5l-0.9,0c0,0-0.1-0.1-0.2-0.2
	c-6.8-3.2-9.9-11.1-9.9-11.1l-0.1-0.1c0,0-4.6-2.6-5.1-1.8c-1,2.5-1,5.6-4.2,7.1c-7.2,4-8.8,0.3-8.8,0.3l0,0l-2.9-16.4l-0.7-0.1
	c0,0-7.9,5.8-8.9,9.1v-1.3l-0.4-0.3l-13.8,0.3l-0.4,0.3c0,0-0.6,8.3-1.5,12.2c0,0.5-2.3,1.5-2.3,1.5h-0.5c0,0-2.3-1-2.3-1.5
	c-1-3.1,1-6.8-1.6-9c-1.9-1.4-8.1,1.4-8.1,1.4l-0.2,0.3l-0.5,5.1l-0.1,0l-5.2-1.6l-5.6-6.4l-0.9,0.1l-0.7,2.1l-0.4,0.2l-4.5,0.5
	l-0.4,0.2l-0.4,2l-0.9,0.1c0,0-9.9-3.6-14.8-4.8c-3.1-0.6-3.1-2.2-3.6-3.4c-0.5-1.6-3.1-3.1-5.7-3.4c-6.2-0.9-10.9-0.3-16.1,3.1
	c-1.8,1.1-11.1,0.6-11.1,0.6l-0.5,0.2c0,0-0.5,0.9-0.5,1.4c0,0,0.1,0,0.1-0.1c0,0.6,0,1.9,0,1.9l-0.1-1.1l-0.8-0.2l-1.8,1.1
	l-0.8-0.1c0,0-5-6.9-9.6-8.4c-3.6-1.6-10.9-1.6-14.6,0c-3.4,1.3-4,7-4,7l0,0.1c0,0,0.4,1,0.4,1.6c-0.2-0.5-0.4-1.6-0.4-1.6l0-0.1
	l-9.4-7.5l-0.2-0.2c0,0-4.1-0.2-5,0.4c-5,3.3-9.1,12.3-9.1,12.3l-0.8-0.2l-11.8-2.9l-0.6,0.3l-0.5,6.4l-0.5,0.3H445l-0.5-0.2
	l-0.9-2.7l-0.3-0.2l-13.4-3.6l-0.6,0.1c0,0-3,3.1-3.4,2.9c-9.9-4.3-15.1,2.5-20.3,5.3c-2.6,1.6-9.4,0.3-14.6,0.9
	c-1,0-2.6,0.9-2.6,1.6c-0.5,2.2-2.6,3.7-3.1,3.4c-7.8-2.3-20.2-10.5-20.2-10.5l-0.3-0.1L349.1,19l-0.3,0c0,0-18.9,5.1-25.9,7.4
	c-1.6,0.6,1,5-1,6.5c-6.2,4.3-6.2,9.6-6.2,9.6l0,0l-8.3,1.5l-0.1,0l-81.2-31.3l-0.6,0.2l-14.6,6.5l-0.5-0.1c0,0-11.3-7.1-18.5-4.5
	c-1.6,0.6-1,5.3-1,5.3l0,0c0,0-7.3,2.2-7.8,1.5c-7.3-6.5-9.9-1.9-13-3.7c-6.2-3.1-12.5-4-19.2-3.1c-2.9,0.3-3.3,3.2-3.3,3.2
	l-0.3,0.4l-6.3,3.2l-0.4,0.4h-1.6l-0.5-0.3c0,0,0.3-1.3-0.1-1.5c-3.8-2-12.3-1.6-12.3-1.6l-0.3,0.1l-6.1,3l-0.1,0l-24-2.7L95,19.2
	l-3.7,5.5l-0.8,0.1L59.8,1.6l-0.1-0.1c0,0-4.2-1.8-5.1-1.5c-17.7,6.2-14,21.1-26.5,28.9C18,34.7,9.3,29.6,0,26.7V60v4440h2600V60
	V38.1C2594.4,40.4,2588.2,42.2,2580.8,42.8z"/>
      </clipPath>
    </defs>
  </svg>
