<svg class="bg_frontera" xmlns="http://www.w3.org/2000/svg" style="position: absolute; width: 0; height: 0; pointer-events: none; z-index: -9999;" aria-hidden="true">
    <defs>
      <clipPath id="bg_frontera_uno_medio">
<path d="M1999.6,11.8c-0.5,0,0.5-0.6,0-0.6c-2.1-0.3-4.2-0.3-6.2-0.2c-3.1,0.5-3.1,1.4-3.6,1.7
	c-3.6,1.7-9.9,0.8-15.1,1.2c-3.1,0.2-5.7,1.1-9.4,0.8c-1-0.2-2.6-0.6-3.1-0.9c-3.6-4.1-6.2-3.2-9.4-2.8c-3.1,0.6-4.2,1.2-3.1,1.8
	c-3.1-0.6-5.2-2.6-8.8-1.7c-2.6,0.5-4.2,2.5-4.2,2.5s-9.9,0-15.1,0.3c-1,0-2.1,0.5-3.1,0.8c0-1.5,0-3.1,0-4.6
	c-2.1,0.6-5.2,1.1-5.7,1.8c-3.6,3.2-4.7,6.8-13,8.3c-2.1-1.7-4.2-2.5-6.2-1.8c0-1.8,0-3.7,0-5.5c-4.5,1.9-3.2,3.7-3.1,5.6
	c0.3,0.1,0.1,0.5,0,0.8c0-0.3,0.1-0.5,0-0.8c0,0-0.1,0-0.1,0s-2.1,0-3.1,0c1.6-3.4-6.2-3.7-6.2-3.7s-10.9,0.3-15.6-0.2
	c-2.6-0.3-4.2-1.1-6.2-0.8c-2.6,0.6-4.7,1.1-6.2,1.8c-4.2,2.5-8.8,3.4-15.6,3.8c-3.1,0.2-4.2,1.1-3.1,1.7c-4.2,0-12-0.2-12-0.2
	s-0.5-2.3-0.5-3.5c-13,1.1-18.7,4.9-28.6,7.1c-4.7,0.9-17.2,0-17.2,0s0.5-3.5-2.1-5.1c-0.5-0.5-8.3,0-8.3,0s-3.6,1.2-6.2,1.5
	c-16.6,2.6-29.1,6.1-44.2,9.1c-5.7,0.9-14.6,0.8-20.8,0.2c-6.2-0.8-15.1-0.5-15.1-0.5s-11.4,0.8-16.6,1.5c0.5-2,0.5-4.3-6.2-5.5
	c-1-0.2-2.6-0.2-2.6,0c-5.7,3.2-14.6,5.1-22.9,7.2c-1,0.3-4.2,0-5.7,0.3c-4.7,0.8-8.3,0.8-12.5,0.8c0.5-2-4.2-5.5-4.2-5.5
	s-7.8-3.8-11.4-2.8c-2.1,0.8-3.6,1.7-3.1,2.8c-5.2,0.3-7.8,0-9.4-0.9c-0.5-0.2-2.1,0-3.1,0c0-1.4,1-2.9-3.6-3.5
	c-4.2-0.5-9.9,0-15.1-0.3v-0.8h-2.6c-1.6-1.2-6.8-3.5-6.8-3.5s-15.6,2.6-25,2.8c-3.1,0.2-4.2,1.1-3.1,1.7c-8.3,0.3-13.5-0.2-13-3.7
	c0-0.3-2.1-0.6-2.1-0.9c0.5-4-2.6-6.6-5.7-5.2c-2.6,0.9-1.6,2.7-1.2,4.3c0.1,0,0.1,0,0.1,0v0.9c0,0-0.1-0.6-0.1-0.9
	c-0.7-0.1-3,0-3,0s0.5-0.8,0-0.8c-2.1-0.3-4.2-0.3-6.2,0c-0.5,0,0,0.8,0,0.8s-4.2,1.2-3.1,1.8c-2.1,0-5.7-0.2-5.7-0.2l-4.2-6.1
	l-18.7,0.6l-17.7-0.2l-15.6-0.3c0,0-10.4,5.1-19.2,7.1c0,0.3,0,0.9,0,0.9s-0.5-0.8,0-0.9c0,0,0,0,0,0c0.3-3.7,2.3-7.5-1.1-10.9
	c-0.5-0.5-8.8-0.6-10.9,0c-7.3,2.5-13.5,5.7-25.5,4.3V14c-8.3-0.3-23.9-0.6-23.9-0.6s-7.8-1.8-10.4-1.2c-18.2,4-28.6,10.5-49.9,12.8
	c-2.1-2.2-7.3-3.7-13-4.3c-5.2-0.8-12-0.3-18.2-0.3c0.5-1.1-1-1.5-3.1-1.8c-2.1-0.2-5.2-0.2-5.7,0c-3.1,2.3-15.6,2.6-15.6,2.6
	s-8.3-1.2-6.8-2.6c-2.1,0-6.2,0.2-6.2,0.2s-8.8,4-15.1,4.8c-3.6,0.6-4.7,2.2-6.8,1.5c-5.7,4.1-16.1,3.8-25,2.8c0,0.3,0.5,0.8,0,0.9
	c-5.2,1.2-12,1.5-15.1,0.8c-3.6-1.1-5.7-2.6-9.9-3.4c-3.6-0.6-6.2,0.8-6.2,0.8v0.9c0,0-2.1,0-3.1,0c0.5-1.1-1.6-1.4-3.1-1.8
	c0,0.3,0,0.6,0,0.9c-3.6-1.4-9.9-1.7-15.1-2.2c-6.2-0.5-5.7-2.6-7.3-4.3c-0.5-0.5-3.6-0.8-5.7-0.8c-6.8-0.2-14.6,1.8-17.2,0.5
	c-4.7-2.2-10.9-4.9-20.3-4.3c0-1.2-0.5-3.5-0.5-3.5s-8.8-0.6-11.4,0c-5.7,1.2-12.5,0.9-12.5,0.9s-8.8,0.8-13,0.6
	c-2.6-0.2-5.2-1.1-5.7-1.7c-1.6-3.7,0-7.4-1-11.1c0-0.3-1.6-0.6-2.6-0.9c-0.5,3.5-8.8,6.1-13.5,9.1c-8.8,4.9-16.6,9.5-21.8,14.8
	c0,0.3-5.2,0.2-8.3,0.2c1,1.4-2.1,2.8-4.2,3.4c-9.9,3.7-16.1,7.4-24.4,11.2c-0.5,0.3-4.2,0.3-5.2,0c-7.3-1.5-7.8-5.2-7.8-5.2
	s-19.8-8.6-33.8-12c-1-0.3-4.2-0.3-5.7,0c-4.7,1.1-15.6,1.7-15.6,1.7s-4.2-1.2-3.1-1.8c-1,0-2.6-0.2-3.1,0c-2.6,0.9-5.7,1.7-9.4,1.7
	c-2.1-0.2-4.2-1.4-6.2-1.5c-7.8-0.2-9.4-1.1-12.5-1.8c-1.6-0.3-5.2,0-5.7-0.3c-3.6-1.4-6.2-2.9-9.9-4.5c1,2.6-8.8,4.5-15.1,3.4
	c-7.3-1.4-11.4-1.4-15.6-1.8c-4.7-0.5-8.3-0.9-8.8-0.5c-2.6,2-8.8,1.8-10.4,3.5c0-0.6-0.5-1.7-0.5-1.7s-4.2-0.3-5.7,0
	c-6.2,0.9-3.6,2.3-3.1,3.5c-3.1-1.5-8.8-0.8-8.8-0.8s-6.8,3.4-6.8,5.4c-4.7-0.6-3.6-3.5-9.4-2.6c-2.6,0.5-4.2,1.1-6.2,0.8
	c-2.6,2.2-8.8,4-9.4,6.5c-15.1,0.3-6.8-1.8-9.9-2.6c-1-0.3-5.2,0-5.2,0s0,1.1-0.5,1.7c-0.5,0.3-2.6,0.6-3.1,0.9
	c-0.5,0.9,1,2-0.5,2.6c-0.5,0.3-3.6,0.3-5.7,0c-0.5,0,0-0.8,0-0.8h-3.1v0.9c0,0-2.6-0.2-2.6,0c-2.1,1.2-2.1,2.5-3.6,3.7
	c-0.5,0.3-3.1,0.8-3.1,0.8s-2.6-0.5-2.6-0.8c-1-2.2,0-4.3-1-6.5h-2.6c0,0,0.5,0.8,0,0.9c-5.7,1.4-10.4,4.5-10.4,4.5
	s-7.3,0.8-8.3,0.2c-3.6-2.9-5.2-8.9-18.7-8.1c-1,0-3.1,0.6-3.1,0.6l-3.1-0.8h-3.1c0,0,0.5,0.8,0,0.8c-2.1,0.3-5.2,0.3-5.7,0.2
	c-3.6-3.4-8.3-4.1-12.5-3.5c-4.7,0.8-6.8,1.1-9.9,0.8c-3.1-0.5-4.2-1.2-3.1-1.8c-7.8-0.6-11.4,1.5-13,3.7c0,0-1.6,0-2.6,0
	c1-1.7-5.7-2.8-3.1-4.6c-10.4-0.8-13,3.4-15.6,5.5c-9.4-2.6-24.4-7.1-24.4-7.1s-10.9,3.2-19.2,2.3v-0.8h-2.6c-1-2.5-0.5-4.9-0.5-7.4
	c-5.2-1.7-15.1-2.2-15.1-2.2l-19.2-4c0,0-21.3-0.9-30.7,0c-7.8,0.9-13,3.4-19.2,5.2c-4.2-2.2-11.4-2.3-18.2-1.7
	c-6.8,0.8-7.3,2.8-9.9,4.5c-0.5,0.5-3.6,0.6-5.7,0.9c-0.5-2.6-9.9-3.1-15.1-2.6c-7.8,0.9-9.9,5.4-9.9,5.4H384v-0.9
	c0,0-2.1,0.2-3.1,0c-4.7-1.2-9.4-3.2-15.6-2.6v0.8c0,0-2.1,0.2-3.1,0c-3.6-0.6-4.2-2.2-6.8-2.6c-5.7-0.8-10.9,1.4-15.1,2.6
	c-3.6-1.7-9.4-2.5-15.1-1.7c-1,0.2,0,1.1-1,1.7c0,0.2-2.6,0-2.6,0l-3.1,1.7c0,0-9.9,1.5-15.6,2c0-0.9,0-1.8,0-2.8
	c-12.5,3.1-9.9,12-9.9,12s-3.1,2.3-5.7,2.5c-19.8,1.5-53.6-4-53.6-4s-18.2,3.4-21.8,7.1c-0.5,0.2-4.2,0.2-5.2-0.2
	c-8.3-1.7-15.6-4.1-13-7.2c-10.4-0.8-19.2-2.8-18.7-6.5c-5.2,0-14.6-0.3-14.6-0.3l-16.1-5.1c0,0,0,1.2-1,1.5
	c-4.2,1.7-12.5,4.6-12.5,4.6S127.1,24,125,24c-10.4-0.5-14-5.5-25-4.5v0.6c-4.7,0.6-8.8-0.8-8.8-0.8l-6.8-2.6c0,0-2.6,0.5-2.6,0.8
	c-1,1.2,0.5,3.1-1,3.4c-10.9,1.4-31.2-4-31.2-4H25.7c0,0,0.5,4.3-4.2,6c-1.6,0.5-6.2,0.5-8.3,0C8.4,22.1,4.1,20.3,0,20v20v3960h2000
	V40V11.9C1999.9,11.9,1999.8,11.9,1999.6,11.8z"/>
      </clipPath>
    </defs>
</svg>
