<svg class="bg_frontera" xmlns="http://www.w3.org/2000/svg" style="position: absolute; width: 0; height: 0; pointer-events: none; z-index: -9999;" aria-hidden="true">
    <defs>
      <clipPath id="bg_frontera_tres_min">
<path d="M1021.4,8.3c-6.8,1.8-8.3,0.6-8.8,0.1c-0.5-1-0.5-2.9-0.5-2.9s-7.8-0.3-12,0c0,0,0.5,0.5,0,0.6
	c-2.6,0.5-5.7,0.9-9.4,0.8c0,0.3,0,0.8,0,0.8h-3.1c0,0-7.8,1.6-12.5,2.3c-1,0.1-3.1,0-3.1,0s-15.1,1.9-21.3,1.3
	c-8.3-0.8-9.4-3.8-19.2-4.2c-10.4-0.5-28.6,1.3-28.6,1.3l-21.3-1.3l-15.1,1.1c0,0-12-3.3-19.8-4c-6.8-0.8-23.9,0-23.9,0
	s-8.3,1.6-13,1.9c-3.6,0.1-6.8-0.6-9.4-1.4c-0.5-0.1-3.1,0-3.1,0s0.5,0.5,0,0.8c-3.1,0.9-6.2,1.5-9.4,2.3c0-0.3,0-0.6,0-0.6
	c-5.2-0.3-15.1,0-15.1,0L755.1,9L744.2,4h-5.7c0,0-20.8,6.1-31.2,4.8c-1.6-0.1-0.5-2.1-6.8-1.8c-6.8,0.5-6.8,4-15.1,2.8
	c-3.6-0.6-7.3-2.7-7.3-2.7l-25,1l-27.6,0.1c0,0-12.5-2.9-19.2-4.2c-3.6-0.6-10.9-0.6-14.6,0c-7.3,1.1-15.1,1-22.4,1.4
	c-3.6,0.3-9.4,2-9.4,2s-7.3-0.1-9.9-0.5c-3.1-0.4-8.8-0.5-11.4,0c-7.3,1.8-25.5,4.3-25.5,4.3s-8.8-2-12.5-1.8
	c-8.3,0.4-16.6,0.9-20.8,0c-8.8-1.8-14.6-8-14.6-8s-7.3-2.1-11.4-1.5c-13.5,2.5-21.3,7.8-40.6,5.9c-4.7-0.4-8.3-1-12.5-0.6
	c-3.1,0.4-4.2,1-3.1,1.5c-2.1,0-4.7,0.1-5.7-0.1c-5.2-0.9-10.9-1.9-15.6-1.3c-10.4,1.1-10.9,4.2-19.2,5.9c-1,0.1-2.6,0-2.6,0
	c-1.6-4.3-12-4.3-18.7-3.5c-7.8,0.6-2.6,2.3-4.2,3.5c0,0-2.1-0.1-2.6,0c-6.2,2.4-15.1,4.5-16.6,7.6c-0.5,0.3-5.2-0.8-5.2-0.8v-0.8
	c0,0-4.2-0.6-6.2-0.6c-9.9,0.1-24.4-2.5-24.4-2.5s-3.1-4.8-13-5c-7.3-0.3-14.6,0.1-21.8-0.3c-9.4-0.6-19.2-4.3-19.2-4.3l-27-0.6
	c0,0-9.4,2.3-14,3.3c-7.8,1.9-13.5,3.4-17.7,5.6c-8.3-2.3-19.2-7.6-19.2-7.6l-8.8-2c0,0-7.3,1.1-9.9,1.9c-0.5,0.3-5.2,0-5.2,0
	s0-1.1-1-1.3c-2.1-0.4-6.2-0.4-8.3,0C103,5.3,100.4,8.3,91.6,9c-4.7,0.3-7.8-0.8-5.7-1.3C73.4,5.5,65.6,7.9,58.3,10
	c0-0.3,0-0.6,0-0.6C51,8.6,49,7.4,45.8,6.2c-0.5-0.1-2.1,0-3.1,0c0.5,1.8-3.6,1.1-6.2,1.5c0-0.3,0-0.5,0-0.8
	C26.6,7.1,8.4,8.4,8.4,8.4L0,10.1V20v2980h1024V20V7.6C1023,7.8,1022.1,8.1,1021.4,8.3z"/>
      </clipPath>
    </defs>
</svg>
