<svg class="bg_frontera" xmlns="http://www.w3.org/2000/svg" style="position: absolute; width: 0; height: 0; pointer-events: none; z-index: -9999;" aria-hidden="true">
    <defs>
      <clipPath id="bg_frontera_dos_medio">
<path d="M1997.6,24.7l-1-0.1v-1.3l-0.5-0.2l-5.2-1.4l0,0c0,0,0.5-4.5-1-5c-5.6-1.3-20.8-0.3-20.8-0.3l-0.4,0.3l-0.1,0.9
	l-0.1,0.1c0,0-6.7,4.3-11.9,2.5c-1-0.2,0-2-1-2.3c-2-0.6-8.3-0.2-8.3-0.2l-0.5,0.2l-3.7,8l0,0l-8.4,6.7l-0.7,0l-3.4-10.3l-0.5-0.2
	h-13.2l-0.4,0.1c0,0-4.4,2.9-7.1,3.5c-1.6,0.5-4.7,0-5.7,0.5c-8,3.1-25.4,3.6-25.4,3.6l-0.2,0l-29-7.7l-0.1,0l-4.7-1.4l-0.8,0.1
	c0,0-1.4,2-2.8,2.2c-6.1,0.7-18.3,0.4-18.3,0.4l-0.4,0.2v0.7l-0.5,0.2h-2.1l-0.5,0.2v1l-0.4,0.2c0,0-2.3,0.1-2.7,0
	c-7.1-2.9-12.7-10.7-12.7-10.7l-0.5-0.3h-1.9l-0.5-0.2l-3.1-3.8l-0.4-0.1h-8.6l-0.5,0.2c0,0-3.8,2.5-6.8,3.6c-1,0.4-5.2,0.2-5.2,0.2
	l-0.5,0.2l-6,6.3l-0.8,0.1l-8.5-3.7h-0.7c0,0-10,4.7-9.5,8c0,0.3-1.7,1-1.7,1l-0.8-0.2c0,0,0.2-0.7-0.1-0.8
	c-5.2-1.6-6.2-5.5-6.2-5.5l-0.1,0l-2.5,0l-0.5-0.2l-5.7-4.6l-0.8,0.1c0,0-5.6,4.9-9.6,5.7c-4.1,0.7-12.4,2.7-12.4,2.7l-0.1,0
	l-8.7,3.1l-0.1,0.1c0,0,0.5,1.1,0,1.1c-2.1,0.5-4.7,0.5-5.7,0c-10.4-3.4-28.6-10.2-28.6-10.2l0,0c0,0-20.8-0.7-28.1-4.6
	c-0.4-0.2-2.9,0-2.9,0l-0.3,0.1L1615,25.8c0,0-5.7,3.6-8.3,2.5c-7.2-3-27.3-8.8-27.3-8.8l-0.6,0l-12.7,7.7l0,0c0,0,0,0.9,0,1.3
	c-0.1-0.5,0-0.9,0-1.3c0.1-1.8-0.5-5.3-0.5-5.3l-0.5-0.2h-1.7l-0.5-0.2l-3-2.5l-0.3,0h-2.4l-0.5,0.2c0,0-4.4,7.5-12.6,6.4
	c-6.7-1.1-6.8-5.2-6.8-5.2l-0.1-0.1l-14.4-5.5l-0.5-0.2l-0.5-2.1l-0.4-0.2l-4.8-0.2l-0.5,0.2l-9.8,7.7l-0.2,0.1c0,0-3.7,0.4-5.6,0
	c-0.4,0-0.1-0.7-0.1-0.7l-0.4-0.2l-15.1,0l-0.1,0l-5.6,1.2l-0.6,0.2v0.9l-0.5,0.2h-1.8l-0.5-0.1l-0.9-3.6l-0.4-0.2
	c0,0-10.9-1-14.2-2c-6.8-1.8-10.9-0.9-16.1-0.7c-2.8,0.2-3.4,2.2-3.4,2.2l-0.5,0.3l-8.1-0.2l-0.1,0c0,0-22.6-3.1-31.2-1.8
	c-3.6,0.5-6.2,3.2-9.4,5c-1,0.5,0,2-1,2.3c-2.3,0.8-5.6-0.9-5.6-0.9l-0.3-0.1c0,0-6.8-0.6-8.7,0c-5.2,1.8-9.9,3.6-15.6,2.3
	c-1-0.2,0-2-1-2.3c-2-0.7-8.5,0-8.5,0l-0.3,0.2V23l-0.2,0.2c0,0-2.4,0.9-2.4,1.3c-0.5,2.3-0.5,3.6-3.6,4.1c-1.9,0.2-5.5,0.1-5.5,0.1
	l-0.2-0.1l-27.9-10.9l-0.5-0.2l-6.3-5l-0.4-0.2c0,0-2.2-0.2-2.7,0c-6.8,2.6-13.5,10.8-13.5,10.8l-0.3,0.1l-7.4,1.5l-0.3,0.2
	l-0.4,1.9l-0.9,0.1l-12.2-11.7l0,0l-8.4-2.8l-0.7,0.1l-2.9,3.7l-0.5,0.2c0,0-3.8,0.2-5.7-0.2c-0.5,0,0.1-1.1,0.1-1.1l-0.1-0.1
	l-12.4-2.5l-0.1,0c0,0-9.3,2.1-8.8,3.9c0.5,3.9-6.4,9.2-6.4,9.2l-0.8,0l-8.8-1.1l-0.1,0l-2,0.9l-0.9-0.2l-9.5-5.7l-0.1,0l-12.5,6.2
	l-0.5,0.2h-5.2l-0.5-0.2l-6.2-3.8l-0.1,0l-2.5,0l-0.5-0.2c0,0-1.2-4.5-3.7-4.8c-10.4-1.1-22.4-1.8-31.7,3.2c-4.6,2.2-8-3.5-8-3.5
	l-0.7-0.1l-3,2.3l-0.5,0.3h-1.8l-0.5-0.2c0,0,0.3-1-0.1-1.1c-3.9-1.5-3.2-3.9-3.2-3.9l-0.5-0.2h-5.1l-0.5,0.3c0,0-0.2,3.9-3.7,5
	c-1,0.4-5.2,0.2-5.2,0.2l-0.5-0.2c0,0-3.8-7-9.4-7.3c-7.8-0.7-17.2,0-24.4,1.1c-7.8,1.4-13,0.5-19.2,0.7c-1,0-3.1-1.1-3.1-1.1l0-0.1
	c0,0-3.1-7.9-8.8-6.6c-4.1,1.1-4.2,5-4.2,5l0,0l-11.8,4.3l-0.3-0.1c0,0,0.6-1,0.1-1c-5.1-1.2-6.8-2.7-6.8-2.7l-0.4-0.3l-5.2,0
	l-0.1,0l-3.6,2.7l-0.1,0.1c0,0-5.9,2.7-8.7,2.5c-8.5-0.9-26.5-4.8-26.5-4.8l-0.1,0c0,0-13.2-0.9-20.2-0.2c-3.1,0.2-3.1,1.6-3.6,2.5
	c-0.5,1.1-5.3,2.6-5.3,2.6l-0.7,0c0,0-11.8-5-17.9-3.5c-1.5,0.4-1,4.8-1,4.8l-0.5,0.2h-1.7l-0.5-0.2l-24.1-8.6l-0.6,0.1L874,16.1
	l-0.4-0.3l-0.1-0.9l-0.1,0c0,0-10.9-3.8-15-2.3c-5.2,1.6-7.3,7.7-7.3,7.7l0,0c0,0-4.2,2.5-5.7,2.3c-4.7-0.5-6.8-3.2-9.9-4.8
	c-6.8-3.2-16.1-1.8-21.3,1.1c-0.4,0.2-2.9,0-2.9,0l-0.3-0.1l-18-5l-0.1,0l-3.5,2.2l-0.1,0l-5.6,0l-0.5-0.2l-3.1-2.5l-0.1,0l-5.7,0
	l-0.5,0.2c0,0-1.2,3.7-3.7,5.2c0,0.2-2.5,0-2.5,0l-0.1,0c0,0-6.7-5.7-12.4-6.4c-2.4-0.2-3.3,2.1-3.3,2.1l-0.3,0.3l-14.1-2.1l-0.8,0
	l-3.4,4.5l-0.5,0.2l-8.4-0.2l-0.3-0.2c0,0,0.3-0.8-0.1-1c-3.8-1.5-12.3-1.1-12.3-1.1l-0.3,0l-5.7,2.1l-0.7,0c0,0-3.8-1.9-5.9-2.1
	c-0.5-0.2-2.6,0.7-2.6,1.1c-1,2.5-5.7,7.1-5.7,7.1l-6.9,6.9l-0.9,0c0,0-14.6-9.9-22.9-6.5c-8.2,3.1-4.7,14.1-4.7,14.1l-0.5,0.2h-8.3
	l-0.5-0.2l-12.6-16.1l0,0l-0.5-2.3l-0.5-0.2l-11-0.2l-0.5,0.2l-9.1,3.6l-0.8,0.1l-5.6-2.5l-0.1-0.1c0,0,0.5-0.9,0-1.3
	c-2.5-1.7-6.3-5.2-6.3-5.2l-0.5-0.2l-8.4,0.2l-0.3,0.2v0.6l-0.3,0.2c0,0-6.5,0.6-8.5,0c-4-1.1-6.9-5-6.9-5l-0.4-0.2
	c0,0-10.6-2.2-14.6-0.9c-9.3,2.7-18.6,11.7-18.6,11.7l-0.5,0.1c0,0-33-8-43.9-14.8c-2.8-1.6-14.2-2.7-14.2-2.7L481.2,3l-6.5,8.5
	l0.3,0.2l0.4,0.1l-0.2,0.4l-0.5-0.2l0-0.2l-0.2-0.2l-9.6-6.1l-0.3-0.1c0,0-4.5-0.1-5,0.3c-5.7,3-5.2,7.3-7.8,10.5
	c-0.5,0.9-4.7-0.2-4.7-1.1c-1-3.4-13-5.5-13-5.5l0,0c0,0-2.1,3.2-3.6,3.9c-2.1,1.1-5.7-0.9-5.7-0.9l-0.1,0l-27.8,4.9l-0.8,0.1
	c0,0-17.3-5.5-24.9-9.1c-5.6-2.4-20.8-1.8-20.8-1.8l-0.4-0.2c0,0,0.3-0.8-0.1-0.9c-5.2-2-12.5-2-14.6-0.9c-3.4,1.5-3.3,7.2-3.3,7.2
	l-0.9-0.1v-0.3l-0.4-0.2c0,0-8.6-0.6-11.6,0c-2.4,0.6-3.4,3.6-3.4,3.6l-0.8,0.1l-2.8-2.3l-0.4-0.3c0,0-8.3-0.4-11.8,0.2
	c-2.5,0.3-3.7,1.6-3.7,1.6l0,0.1c0,0,0.7,1.4,0.5,2.2c-0.3-0.7-0.6-2.2-0.6-2.2l0-0.1c0,0-3.2-2.3-5.6-2.9c-1.2-0.4-5.3,0-5.3,0
	l-0.4,0.2l-2.9,7.5l-0.8-0.2l-15-6.3l-0.6,0.2l-2.1,4l-0.9,0c0,0-0.1-0.1-0.2-0.1c-6.8-2.4-9.9-8.1-9.9-8.1L252.5,8
	c0,0-4.6-1.9-5.1-1.3c-1,1.8-1,4.1-4.2,5.2c-7.2,2.9-8.8,0.2-8.8,0.2l0,0l-2.9-12.1L230.8,0c0,0-7.9,4.3-8.9,6.7v-1l-0.4-0.2
	l-13.8,0.2L207.3,6c0,0-0.6,6.1-1.5,8.9c0,0.4-2.3,1.1-2.3,1.1h-0.5c0,0-2.3-0.7-2.3-1.1c-1-2.3,1-5-1.6-6.6c-1.9-1-8.1,1.1-8.1,1.1
	l-0.2,0.2l-0.5,3.7l-0.1,0l-5.2-1.2l-5.6-4.7l-0.9,0.1l-0.7,1.5l-0.4,0.2l-4.5,0.4l-0.4,0.2l-0.4,1.5l-0.9,0.1c0,0-9.9-2.6-14.8-3.5
	c-3.1-0.5-3.1-1.6-3.6-2.5c-0.5-1.1-3.1-2.3-5.7-2.5c-6.2-0.7-10.9-0.2-16.1,2.3c-1.8,0.8-11.1,0.5-11.1,0.5l-0.5,0.1
	c0,0-0.5,0.6-0.5,1c0,0,0.1,0,0.1-0.1c0,0.5,0,1.4,0,1.4l-0.1-0.8L118,7.1l-1.8,0.8l-0.8,0c0,0-5-5-9.6-6.1
	c-3.6-1.1-10.9-1.1-14.6,0c-3.4,0.9-4,5.1-4,5.1l0,0c0,0,0.4,0.7,0.4,1.2c-0.2-0.4-0.4-1.2-0.4-1.2l0,0l-9.4-5.5l-0.2-0.1
	c0,0-4.1-0.1-5,0.3c-5,2.4-9.1,9-9.1,9l-0.8-0.2L50.9,8.2l-0.6,0.2l-0.5,4.7l-0.5,0.2H45l-0.5-0.2l-0.9-2L43.3,11L29.9,8.4l-0.6,0.1
	c0,0-3,2.3-3.4,2.1C16,7.4,10.8,12.4,5.6,14.4C4.4,15,2.4,15,0,15v25v3960h2000V40V19.7L1997.6,24.7z"/>
      </clipPath>
    </defs>
</svg>
