<svg class="bg_frontera" xmlns="http://www.w3.org/2000/svg" style="position: absolute; width: 0; height: 0; pointer-events: none; z-index: -9999;" aria-hidden="true">
    <defs>
      <clipPath id="bg_frontera_tres_medio">
<path d="M1996.8,16.6c-5.2,1.3-15.6,3.5-15.6,3.5s-2.1,10.4-8.8,8.3c-1.6-0.5,0.5-4.5-1-5c-6.2-1.5-13.5-3-21.3-2
	c0-0.5,0.5-1.3,0-1.3c-5.7-1.5-8.3-2.3-6.2-3.3c-4.2,0-12.5,0.3-12.5,0.3s-5.7,3.3-9.4,4c-8.8,1.5-12.5-0.5-15.6-2.8
	c-0.5-0.3-3.1,0-3.1,0s-8.8,5.6-15.6,5.8c-1,0-2.1-0.8-3.1-1.3c0,0.5,0.5,1,0,1.5c-3.1,1.8-7.3,2.8-8.8,4.5c-1,1.8-3.6,3-3.6,3
	s-2.1,0-3.1,0c0-2.3,0.5-4.3-3.1-6.1c-3.6,2-8.8,4.5-11.4,2.8c-5.2-3.8-2.6-9.8-8.3-12.9c-5.2-2.3-21.3,3.5-21.3,3.5
	s-10.9,1.3-14.6,0c-4.7-1.3-9.9-0.8-9.9-0.8s-8.8,9.1-14.6,6.6c-3.1-1.3-9.4-4.8-9.4-4.8s-6.2,7.8-8.3,5c-4.2-4.3-6.2-9.8-12.5-14.4
	c-1.6-1.3-5.2,1.3-5.2,1.3s0.5,1.3,0,1.3c-2.1,0.5-4.2,0.5-6.2,0c-0.5,0,0.5-1,0-1c-2.1-0.5-4.7-0.5-5.7,0c-5.7,3-12,3.3-19.2,2.5
	v-1c-6.2-0.5-13.5-1-18.2,0.3c-8.3,2-15.6,5.6-25.5,5.6c1-3-3.6-3.5-6.8-4c-8.3-2-14.6,2-18.7,5.6c0,0.3-2.1-0.3-2.6,0
	c-1.6,1.5-2.1,3-3.1,4.5c-6.2-2.8-15.6-9.3-15.6-9.3s-1.6-2.3-3.1-2.5c-7.3-1-16.6,1.3-20.8-2c-2.1-1.3-2.1-2.3-4.2-2.8
	c-2.1-0.3-6.2,0.3-6.2,0.3s-8.8,4.5-13,7.1c-6.8,3.5-8.3,1.3-8.8,0.3c-0.5-2-0.5-5.8-0.5-5.8s-7.8-0.5-12,0c0,0,0.5,1,0,1.3
	c-2.6,1-5.7,1.8-9.4,1.5c0,0.5,0,1.5,0,1.5h-3.1c0,0-7.8,3.3-12.5,4.5c-1,0.3-3.1,0-3.1,0s-15.1,3.8-21.3,2.5
	c-8.3-1.5-9.4-7.6-19.2-8.3c-10.4-1-28.6,2.5-28.6,2.5l-21.3-2.5l-15.1,2.3c0,0-12-6.6-19.8-8.1c-6.8-1.5-23.9,0-23.9,0
	s-8.3,3.3-13,3.8c-3.6,0.3-6.8-1.3-9.4-2.8c-0.5-0.3-3.1,0-3.1,0s0.5,1,0,1.5c-3.1,1.8-6.2,3-9.4,4.5c0-0.5,0-1.3,0-1.3
	c-5.2-0.5-15.1,0-15.1,0l-17.7,3.8l-10.9-9.8h-5.7c0,0-20.8,12.1-31.2,9.6c-1.6-0.3-0.5-4.3-6.8-3.5c-6.8,1-6.8,8.1-15.1,5.6
	c-3.6-1.3-7.3-5.3-7.3-5.3l-25,2l-27.6,0.3c0,0-12.5-5.8-19.2-8.3c-3.6-1.3-10.9-1.3-14.6,0c-7.3,2.3-15.1,2-22.4,2.8
	c-3.6,0.5-9.4,4-9.4,4s-7.3-0.3-9.9-1c-3.1-0.8-8.8-1-11.4,0c-7.3,3.5-25.5,8.6-25.5,8.6s-8.8-4-12.5-3.5c-8.3,0.8-16.6,1.8-20.8,0
	c-8.8-3.5-14.6-15.9-14.6-15.9s-7.3-4.3-11.4-3c-13.5,5-21.3,15.7-40.6,11.9c-4.7-0.8-8.3-2-12.5-1.3c-3.1,0.8-4.2,2-3.1,3
	c-2.1,0-4.7,0.3-5.7-0.3c-5.2-1.8-10.9-3.8-15.6-2.5c-10.4,2.3-10.9,8.3-19.2,11.9c-1,0.3-2.6,0-2.6,0c-1.6-8.6-12-8.6-18.7-7.1
	c-7.8,1.3-2.6,4.5-4.2,7.1c0,0-2.1-0.3-2.6,0c-6.2,4.8-15.1,9.1-16.6,15.1c-0.5,0.5-5.2-1.5-5.2-1.5v-1.5c0,0-4.2-1.3-6.2-1.3
	c-9.9,0.3-24.4-5-24.4-5s-3.1-9.6-13-10.1c-7.3-0.5-14.6,0.3-21.8-0.5c-9.4-1.3-19.2-8.6-19.2-8.6l-27-1.3c0,0-9.4,4.5-14,6.6
	c-7.8,3.8-13.5,6.8-17.7,11.1c-8.3-4.5-19.2-15.1-19.2-15.1l-8.8-4c0,0-7.3,2.3-9.9,3.8c-0.5,0.5-5.2,0-5.2,0s0-2.3-1-2.5
	c-2.1-0.8-6.2-0.8-8.3,0c-8.3,2.5-10.9,8.6-19.8,9.8c-4.7,0.5-7.8-1.5-5.7-2.5c-12.5-4.3-20.3,0.5-27.6,4.5c0-0.5,0-1.3,0-1.3
	c-7.3-1.5-9.4-3.8-12.5-6.3c-0.5-0.3-2.1,0-3.1,0c0.5,3.5-3.6,2.3-6.2,3c0-0.5,0-1,0-1.5c-9.9,0.3-28.1,3-28.1,3l-21.3,8.3
	c0,0-6.2-7.8-10.9-10.9c-2.1-1.3-9.4-0.8-14.6-0.3c0,0,0.5,1,0,1c-2.1,0.5-4.2,0.3-6.2,0.3c0.5-1.8-1-2.8-3.1-2.8
	c-3.6-0.5-6.8-0.3-9.9,1c-1.6,0.8-7.3,0.8-8.3,0c-9.9-7.8-28.6-3.8-28.6-3.8s-10.9,7.6-18.2,5c-1-0.5-1.6-2.3-3.6-2.3
	c-4.2-0.5-12,0-12,0s-4.2,4.8-3.6,7.3c-2.1-2.5-9.4-5.8-9.4-5.8s-11.4-1-15.1,0.3c-1.6,0.3,0,2.5-1,4c0,0-1.6,0.3-2.6,0
	c-6.2-2-7.3-7.8-15.6-5.8c-2.6,0.8-4.2,1.8-6.2,1.3c0,0.5,0.5,1.3,0,1.3c-2.1,0.5-4.2,0.5-6.2,0c-0.5,0,0.5-1,0-1.3
	c-5.2-2.3-10.9-2-15.6-1.3c-6.2,1.3-1.6,3.8-3.1,5.8c-2.1-1.5-5.7-1.8-5.7-1.8s-18.2-4.5-28.6-4.3c0.5-1.8-1-3.3-3.1-4.5
	c-0.5-0.3-3.1,0-3.1,0v1.5c0,0-2.1,0-3.1,0c1,3.5-6.2,7.1-6.2,7.1s-4.2-1.5-3.1-2.5c-13-1-13.5,2-15.6,4.5c-0.5,1,0.5,2,0,3
	c-0.5,0.5-2.1,1-3.1,1.5c0-1.5,1-3.3-0.5-4.3c-0.5-0.5-4.7-0.5-5.2,0c-4.2,3.5-9.4,8.3-14.6,5.3c-3.1-2-7.8-5.3-7.8-5.3
	s-6.2-0.5-9.4,0v1.3c0,0-2.1,0-3.1,0c0.5-3.5-3.6-2.3-6.2-3c0.5,3.5-4.7,3-5.7,2.8c-7.8-2.5-5.7-10.9-15.1-6.8
	c-2.6,1.3-4.2,4.8-7.8,6.8c-1,0.5-4.2,0.5-5.2,0c-8.3-3-25-5.6-25-5.6s0,1.8-0.5,2.8c-1.6,1.5-6.2,1.5-6.2,1.5s0.5-1.3,0-1.3
	c-3.6-1-5.7,0.3-5.7,1.3c-0.5,3-4.7,5-7.3,7.6c0,0.3-2.1,0.3-2.6,0c-1.6-1.5-1.6-3-3.1-4.5c-6.8-5-10.4-10.1-16.6-14.9
	c-0.5-0.8-5.2-0.5-8.3,0c0,0,0.5,1,0,1.3c-8.8,2.8-5.7,5-6.2,7.6c-8.8-0.8-28.6-0.5-28.6-0.5s-20.3,0.5-30.7,0.5
	c1,3-6.8,4.3-6.8,4.3s-9.9-0.3-15.1,0.5c-3.1,0.3-4.2,1.8-3.1,2.8c-4.2,0-12-0.3-12-0.3s-10.5-5-22.9-8V40v3960h2000V40V15.4
	C1999.1,15.9,1998.2,16.4,1996.8,16.6z"/>
      </clipPath>
    </defs>
</svg>
