<svg class="bg_frontera" xmlns="http://www.w3.org/2000/svg" style="position: absolute; width: 0; height: 0; pointer-events: none; z-index: -9999;" aria-hidden="true">
    <defs>
      <clipPath id="bg_frontera_uno_min">
<path d="M1012.4,10.1c0-0.2-2.1-0.3-2.1-0.5c0.5-2-2.6-3.3-5.7-2.6c-2.6,0.4-1.6,1.3-1.2,2.1c0.1,0,0.1,0,0.1,0v0.5
	c0,0-0.1-0.3-0.1-0.5c-0.7,0-3,0-3,0s0.5-0.4,0-0.4c-2.1-0.2-4.2-0.2-6.2,0c-0.5,0,0,0.4,0,0.4s-4.2,0.6-3.1,0.9
	c-2.1,0-5.7-0.1-5.7-0.1L981.2,7l-18.7,0.3l-17.7-0.1l-15.6-0.2c0,0-10.4,2.5-19.2,3.5c0,0.2,0,0.5,0,0.5s-0.5-0.4,0-0.5
	c0,0,0,0,0,0c0.3-1.9,2.3-3.7-1.1-5.5c-0.5-0.2-8.8-0.3-10.9,0c-7.3,1.2-13.5,2.8-25.5,2.2V7c-8.3-0.2-23.9-0.3-23.9-0.3
	s-7.8-0.9-10.4-0.6c-18.2,2-28.6,5.2-49.9,6.4c-2.1-1.1-7.3-1.8-13-2.2c-5.2-0.4-12-0.2-18.2-0.2c0.5-0.5-1-0.8-3.1-0.9
	c-2.1-0.1-5.2-0.1-5.7,0c-3.1,1.2-15.6,1.3-15.6,1.3s-8.3-0.6-6.8-1.3c-2.1,0-6.2,0.1-6.2,0.1s-8.8,2-15.1,2.4
	c-3.6,0.3-4.7,1.1-6.8,0.8c-5.7,2.1-16.1,1.9-25,1.4c0,0.2,0.5,0.4,0,0.5c-5.2,0.6-12,0.8-15.1,0.4c-3.6-0.5-5.7-1.3-9.9-1.7
	c-3.6-0.3-6.2,0.4-6.2,0.4v0.5c0,0-2.1,0-3.1,0c0.5-0.5-1.6-0.7-3.1-0.9c0,0.2,0,0.3,0,0.5c-3.6-0.7-9.9-0.8-15.1-1.1
	c-6.2-0.2-5.7-1.3-7.3-2.2c-0.5-0.2-3.6-0.4-5.7-0.4c-6.8-0.1-14.6,0.9-17.2,0.2c-4.7-1.1-10.9-2.5-20.3-2.2c0-0.6-0.5-1.8-0.5-1.8
	s-8.8-0.3-11.4,0c-5.7,0.6-12.5,0.5-12.5,0.5s-8.8,0.4-13,0.3c-2.6-0.1-5.2-0.5-5.7-0.8c-1.6-1.8,0-3.7-1-5.5c0-0.2-1.6-0.3-2.6-0.5
	c-0.5,1.8-8.8,3.1-13.5,4.5c-8.8,2.5-16.6,4.8-21.8,7.4c0,0.2-5.2,0.1-8.3,0.1c1,0.7-2.1,1.4-4.2,1.7c-9.9,1.8-16.1,3.7-24.4,5.6
	c-0.5,0.2-4.2,0.2-5.2,0c-7.3-0.8-7.8-2.6-7.8-2.6s-19.8-4.3-33.8-6c-1-0.2-4.2-0.2-5.7,0c-4.7,0.5-15.6,0.8-15.6,0.8
	s-4.2-0.6-3.1-0.9c-1,0-2.6-0.1-3.1,0c-2.6,0.5-5.7,0.8-9.4,0.8c-2.1-0.1-4.2-0.7-6.2-0.8c-7.8-0.1-9.4-0.5-12.5-0.9
	c-1.6-0.2-5.2,0-5.7-0.2c-3.6-0.7-6.2-1.5-9.9-2.2c1,1.3-8.8,2.2-15.1,1.7c-7.3-0.7-11.4-0.7-15.6-0.9c-4.7-0.2-8.3-0.5-8.8-0.2
	c-2.6,1-8.8,0.9-10.4,1.8c0-0.3-0.5-0.8-0.5-0.8s-4.2-0.2-5.7,0c-6.2,0.5-3.6,1.2-3.1,1.8c-3.1-0.8-8.8-0.4-8.8-0.4
	s-6.8,1.7-6.8,2.7c-4.7-0.3-3.6-1.8-9.4-1.3c-2.6,0.2-4.2,0.5-6.2,0.4c-2.6,1.1-8.8,2-9.4,3.2c-15.1,0.2-6.8-0.9-9.9-1.3
	c-1-0.2-5.2,0-5.2,0s0,0.5-0.5,0.8c-0.5,0.2-2.6,0.3-3.1,0.5c-0.5,0.5,1,1-0.5,1.3c-0.5,0.2-3.6,0.2-5.7,0c-0.5,0,0-0.4,0-0.4h-3.1
	v0.5c0,0-2.6-0.1-2.6,0c-2.1,0.6-2.1,1.2-3.6,1.8c-0.5,0.2-3.1,0.4-3.1,0.4s-2.6-0.2-2.6-0.4c-1-1.1,0-2.2-1-3.2h-2.6
	c0,0,0.5,0.4,0,0.5c-5.7,0.7-10.4,2.2-10.4,2.2s-7.3,0.4-8.3,0.1c-3.6-1.5-5.2-4.5-18.7-4.1c-1,0-3.1,0.3-3.1,0.3l-3.1-0.4h-3.1
	c0,0,0.5,0.4,0,0.4c-2.1,0.2-5.2,0.2-5.7,0.1c-3.6-1.7-8.3-2.1-12.5-1.8c-4.7,0.4-6.8,0.5-9.9,0.4c-3.1-0.2-4.2-0.6-3.1-0.9
	c-7.8-0.3-11.4,0.8-13,1.8c0,0-1.6,0-2.6,0c1-0.8-5.7-1.4-3.1-2.3c-10.4-0.4-13,1.7-15.6,2.8c-9.4-1.3-24.4-3.5-24.4-3.5
	s-10.9,1.6-19.2,1.2v-0.4h-2.6c-1-1.2-0.5-2.5-0.5-3.7C24.9,7,15,6.8,15,6.8L0,5.2V20v2980h1024V20v-8
	C1016.5,12.1,1011.9,11.8,1012.4,10.1z"/>
      </clipPath>
    </defs>
</svg>
