<svg class="bg_frontera" xmlns="http://www.w3.org/2000/svg" style="position: absolute; width: 0; height: 0; pointer-events: none; z-index: -9999;" aria-hidden="true">
    <defs>
      <clipPath id="bg_frontera_uno_grande">
<path d="M2592.2,22.8c-5.7-1.4-16.6-1.8-24.4,0.5c-2.1,0.7-8.3,0-8.3,0s-6.8-3-9.9-2.5c-1,0.2-2.1,1.2-3.1,1.2
	c-5.2,0.5-10.4,0.2-15.6,0.2c1,2.1-3.1,5.5-3.1,5.5s0-9.5-9.4-9.7c1.6,3.9-1.6,6.2-6.2,8.3c0-2.8,1-5.5-0.5-8.3
	c-0.5-1.4-5.7-1.4-5.7-1.4s0.5,1.2,0,1.2c-2.1,0.5-4.2,0.5-6.2,0c-0.5,0,0.5-0.9,0-0.9c-2.1-0.5-4.2-0.5-6.2-0.2
	c-3.1,0.7-3.1,2.1-3.6,2.5c-3.6,2.5-9.9,1.2-15.1,1.8c-3.1,0.2-5.7,1.6-9.4,1.2c-1-0.2-2.6-0.9-3.1-1.4c-3.6-6.2-6.2-4.8-9.4-4.1
	c-3.1,0.9-4.2,1.8-3.1,2.8c-3.1-0.9-5.2-3.9-8.8-2.5c-2.6,0.7-4.2,3.7-4.2,3.7s-9.9,0-15.1,0.5c-1,0-2.1,0.7-3.1,1.2
	c0-2.3,0-4.6,0-6.9c-2.1,0.9-5.2,1.6-5.7,2.8c-3.6,4.8-4.7,10.1-13,12.4c-2.1-2.5-4.2-3.7-6.2-2.8c0-2.8,0-5.5,0-8.3
	c-4.5,2.8-3.2,5.6-3.1,8.3c0.3,0.2,0.1,0.7,0,1.1c0-0.4,0.1-0.8,0-1.1c0,0-0.1,0-0.1,0s-2.1,0-3.1,0c1.6-5.1-6.2-5.5-6.2-5.5
	s-10.9,0.5-15.6-0.2c-2.6-0.5-4.2-1.6-6.2-1.2c-2.6,0.9-4.7,1.6-6.2,2.8c-4.2,3.7-8.8,5.1-15.6,5.8c-3.1,0.2-4.2,1.6-3.1,2.5
	c-4.2,0-12-0.2-12-0.2s-0.5-3.5-0.5-5.3c-13,1.6-18.7,7.4-28.6,10.6c-4.7,1.4-17.2,0-17.2,0s0.5-5.3-2.1-7.6c-0.5-0.7-8.3,0-8.3,0
	s-3.6,1.8-6.2,2.3c-16.6,3.9-29.1,9.2-44.2,13.6c-5.7,1.4-14.6,1.2-20.8,0.2c-6.2-1.2-15.1-0.7-15.1-0.7s-11.4,1.2-16.6,2.3
	c0.5-3,0.5-6.5-6.2-8.3c-1-0.2-2.6-0.2-2.6,0c-5.7,4.8-14.6,7.6-22.9,10.8c-1,0.5-4.2,0-5.7,0.5c-4.7,1.2-8.3,1.2-12.5,1.2
	c0.5-3-4.2-8.3-4.2-8.3s-7.8-5.8-11.4-4.1c-2.1,1.2-3.6,2.5-3.1,4.1c-5.2,0.5-7.8,0-9.4-1.4c-0.5-0.2-2.1,0-3.1,0
	c0-2.1,1-4.4-3.6-5.3c-4.2-0.7-9.9,0-15.1-0.5v-1.2h-2.6c-1.6-1.8-6.8-5.3-6.8-5.3s-15.6,3.9-25,4.1c-3.1,0.2-4.2,1.6-3.1,2.5
	c-8.3,0.5-13.5-0.2-13-5.5c0-0.5-2.1-0.9-2.1-1.4c0.5-6-2.6-9.9-5.7-7.8c-2.6,1.3-1.6,4-1.2,6.4c0.1,0,0.1,0,0.1,0V29
	c0,0-0.1-0.9-0.1-1.4c-0.7-0.1-3,0-3,0s0.5-1.2,0-1.2c-2.1-0.5-4.2-0.5-6.2,0c-0.5,0,0,1.2,0,1.2s-4.2,1.8-3.1,2.8
	c-2.1,0-5.7-0.2-5.7-0.2l-4.2-9.2l-18.7,0.9l-17.7-0.2l-15.6-0.5c0,0-10.4,7.6-19.2,10.6c0,0.5,0,1.4,0,1.4s-0.5-1.2,0-1.4
	c0,0,0,0,0,0c0.3-5.6,2.3-11.2-1.1-16.4c-0.5-0.7-8.8-0.9-10.9,0c-7.3,3.7-13.5,8.5-25.5,6.5V21c-8.3-0.5-23.9-0.9-23.9-0.9
	s-7.8-2.8-10.4-1.8c-18.2,6-28.6,15.7-49.9,19.1c-2.1-3.2-7.3-5.5-13-6.5c-5.2-1.2-12-0.5-18.2-0.5c0.5-1.6-1-2.3-3.1-2.8
	c-2.1-0.2-5.2-0.2-5.7,0c-3.1,3.5-15.6,3.9-15.6,3.9s-8.3-1.8-6.8-3.9c-2.1,0-6.2,0.2-6.2,0.2s-8.8,6-15.1,7.1
	c-3.6,0.9-4.7,3.2-6.8,2.3c-5.7,6.2-16.1,5.8-25,4.1c0,0.5,0.5,1.2,0,1.4c-5.2,1.8-12,2.3-15.1,1.2c-3.6-1.6-5.7-3.9-9.9-5.1
	c-3.6-0.9-6.2,1.2-6.2,1.2v1.4c0,0-2.1,0-3.1,0c0.5-1.6-1.6-2.1-3.1-2.8c0,0.5,0,0.9,0,1.4c-3.6-2.1-9.9-2.5-15.1-3.2
	c-6.2-0.7-5.7-3.9-7.3-6.5c-0.5-0.7-3.6-1.2-5.7-1.2c-6.8-0.2-14.6,2.8-17.2,0.7c-4.7-3.2-10.9-7.4-20.3-6.5c0-1.8-0.5-5.3-0.5-5.3
	s-8.8-0.9-11.4,0c-5.7,1.8-12.5,1.4-12.5,1.4s-8.8,1.2-13,0.9c-2.6-0.2-5.2-1.6-5.7-2.5c-1.6-5.5,0-11.1-1-16.6
	c0-0.5-1.6-0.9-2.6-1.4c-0.5,5.3-8.8,9.2-13.5,13.6c-8.8,7.4-16.6,14.3-21.8,22.1c0,0.5-5.2,0.2-8.3,0.2c1,2.1-2.1,4.1-4.2,5.1
	c-9.9,5.5-16.1,11.1-24.4,16.8c-0.5,0.5-4.2,0.5-5.2,0c-7.3-2.3-7.8-7.8-7.8-7.8S1418,37.1,1404,32c-1-0.5-4.2-0.5-5.7,0
	c-4.7,1.6-15.6,2.5-15.6,2.5s-4.2-1.8-3.1-2.8c-1,0-2.6-0.2-3.1,0c-2.6,1.4-5.7,2.5-9.4,2.5c-2.1-0.2-4.2-2.1-6.2-2.3
	c-7.8-0.2-9.4-1.6-12.5-2.8c-1.6-0.5-5.2,0-5.7-0.5c-3.6-2.1-6.2-4.4-9.9-6.7c1,3.9-8.8,6.7-15.1,5.1c-7.3-2.1-11.4-2.1-15.6-2.8
	c-4.7-0.7-8.3-1.4-8.8-0.7c-2.6,3-8.8,2.8-10.4,5.3c0-0.9-0.5-2.5-0.5-2.5s-4.2-0.5-5.7,0c-6.2,1.4-3.6,3.5-3.1,5.3
	c-3.1-2.3-8.8-1.2-8.8-1.2s-6.8,5.1-6.8,8.1c-4.7-0.9-3.6-5.3-9.4-3.9c-2.6,0.7-4.2,1.6-6.2,1.2c-2.6,3.2-8.8,6-9.4,9.7
	c-15.1,0.5-6.8-2.8-9.9-3.9c-1-0.5-5.2,0-5.2,0s0,1.6-0.5,2.5c-0.5,0.5-2.6,0.9-3.1,1.4c-0.5,1.4,1,3-0.5,3.9
	c-0.5,0.5-3.6,0.5-5.7,0c-0.5,0,0-1.2,0-1.2h-3.1v1.4c0,0-2.6-0.2-2.6,0c-2.1,1.8-2.1,3.7-3.6,5.5c-0.5,0.5-3.1,1.2-3.1,1.2
	s-2.6-0.7-2.6-1.2c-1-3.2,0-6.5-1-9.7h-2.6c0,0,0.5,1.2,0,1.4c-5.7,2.1-10.4,6.7-10.4,6.7s-7.3,1.2-8.3,0.2
	c-3.6-4.4-5.2-13.4-18.7-12.2c-1,0-3.1,0.9-3.1,0.9l-3.1-1.2h-3.1c0,0,0.5,1.2,0,1.2c-2.1,0.5-5.2,0.5-5.7,0.2
	c-3.6-5.1-8.3-6.2-12.5-5.3c-4.7,1.2-6.8,1.6-9.9,1.2c-3.1-0.7-4.2-1.8-3.1-2.8c-7.8-0.9-11.4,2.3-13,5.5c0,0-1.6,0-2.6,0
	c1-2.5-5.7-4.1-3.1-6.9c-10.4-1.2-13,5.1-15.6,8.3c-9.4-3.9-24.4-10.6-24.4-10.6s-10.9,4.8-19.2,3.5v-1.2h-2.6
	c-1-3.7-0.5-7.4-0.5-11.1c-5.2-2.5-15.1-3.2-15.1-3.2l-19.2-6c0,0-21.3-1.4-30.7,0c-7.8,1.4-13,5.1-19.2,7.8
	c-4.2-3.2-11.4-3.5-18.2-2.5c-6.8,1.2-7.3,4.1-9.9,6.7c-0.5,0.7-3.6,0.9-5.7,1.4c-0.5-3.9-9.9-4.6-15.1-3.9
	c-7.8,1.4-9.9,8.1-9.9,8.1H884v-1.4c0,0-2.1,0.2-3.1,0c-4.7-1.8-9.4-4.8-15.6-3.9v1.2c0,0-2.1,0.2-3.1,0c-3.6-0.9-4.2-3.2-6.8-3.9
	c-5.7-1.2-10.9,2.1-15.1,3.9c-3.6-2.5-9.4-3.7-15.1-2.5c-1,0.2,0,1.6-1,2.5c0,0.2-2.6,0-2.6,0l-3.1,2.5c0,0-9.9,2.3-15.6,3
	c0-1.4,0-2.8,0-4.1c-12.5,4.6-9.9,18-9.9,18s-3.1,3.5-5.7,3.7c-19.8,2.3-53.6-6-53.6-6s-18.2,5.1-21.8,10.6
	c-0.5,0.2-4.2,0.2-5.2-0.2c-8.3-2.5-15.6-6.2-13-10.8c-10.4-1.2-19.2-4.1-18.7-9.7c-5.2,0-14.6-0.5-14.6-0.5l-16.1-7.6
	c0,0,0,1.8-1,2.3c-4.2,2.5-12.5,6.9-12.5,6.9S627.1,36,625,36c-10.4-0.7-14-8.3-25-6.7v0.9c-4.7,0.9-8.8-1.2-8.8-1.2l-6.8-3.9
	c0,0-2.6,0.7-2.6,1.2c-1,1.8,0.5,4.6-1,5.1c-10.9,2.1-31.2-6-31.2-6h-23.9c0,0,0.5,6.5-4.2,9c-1.6,0.7-6.2,0.7-8.3,0
	c-6.8-1.6-12.5-6.5-18.2-3.5c-3.6,2.1,0.5,6-1.6,9.2c-0.5,0.2-3.6,0.2-5.7-0.2c-0.5,0,0-1.2,0-1.2h-3.1c0,0,0.5,0.9,0,1.4
	c-4.2,2.8-9.4,2.8-12,3.2c-9.9,3-5.7,8.8-7.3,13.4c0,0.5-1.6,0.9-2.6,1.4c-4.2-2.1-8.3-4.6-15.1-2.5c-1,0.2,0,1.8-1,2.3
	c-1.6,1.2-7.8,1.4-7.8,1.4s-4.7-6.2-10.4-8.3c-1.6-0.5-2.1-2.1-3.1-2.3c-5.2-0.2-12.5-1.4-15.6,1.2c1.6-3.5-3.1-4.8-6.2-6.9
	c-0.5-0.5,0-1.4,0-1.4s-4.2-0.9-6.2-1.4c0.5,3-8.8,6.9-8.8,6.9l-1,2.5c0,0-3.6,0.2-5.7,0.2c0.5-1.6-3.1-2.8-3.1-2.8s-2.6-0.2-2.6,0
	c-3.6,3-13,9.5-13,9.5s-3.6-2.1-6.2-2.3c-3.6-0.5-5.7-0.7-5.7-1.6c-1-5.1-0.5-10.1-0.5-15.2c-15.1-1.8-23.9,4.8-31.2,9.7
	c-30.7,2.3-76.4-15.9-76.4-15.9l-36.4-18l-37.4,6c0,0-15.6,1.6-24.4,2.1c-5.7,0.5-8.3,6.9-14.6,4.6c-5.7-2.3-8.3-3.5-13.5-3.7
	c-8.3-0.2-16.6,0.2-25-0.2c-11.4-0.5-16.1-4.8-22.9-7.6c-2.6-1.2-9.4-0.5-14.6-0.5c0,3.5-10.4,6.7-10.4,6.7H32.2
	c0,0-22.3-0.3-32.2-1.6V60v4440h2600V60V26.4C2597.8,25,2595.4,23.6,2592.2,22.8z"/>
      </clipPath>
    </defs>
  </svg>
