<svg xmlns="http://www.w3.org/2000/svg" width="800" height="600" viewBox="0 0 800 600" fill="white">
<path d="M453.2,0c12.3,1.8,31.3,1.9,45.3,0.4c13.1,0.3,26.3,0.5,39.3,0.8c0.5,0.9,1.2,1.9,1.7,2.8
	c-5.1,5.3-9.3,11.7-12.8,18c-1.7,3.2-3.5,6.5-5.1,9.7c-1.9-0.5-3.9-0.9-5.7-1.4c-12.7,4.7-23.3,10.9-39.9,12.9
	c-4,0.5-5.2-1.6-7.7-1.4c-3.3,0.2-16.1,3.7-21.1,1.6c-8.9-3.7-4-14.4-7.1-22.4c-11.2-2.3-0.7-20.7,9.5-20.8c1.1,0.4,2.1,0.8,3.2,1.2
	c0.1-0.1,0.4-0.1,0.5-0.2C453.2,0.8,453.2,0.4,453.2,0z M577.8,3.2c2.4,1.5,3.7,8.1,3.5,10.7c2-0.5,4-1.1,6-1.6
	c7.6,4-3.9,15.1-7.5,19.4c-5.5,6.7-5.5,15.3-7.7,24.9c-3.2,13.8-4.4,32.3-1.2,46.7c0.4,5.3,0.8,10.6,1.2,16
	c2.5,23.2,5.1,46.5,7.7,69.7c0.3,5.1,0.5,10.1,0.8,15.2c0.8,13.4,1.5,26.8,2.3,40.2c0.8,14.9,1.7,29.8,2.5,44.7
	c1.2,16.3,2.3,32.6,3.5,48.9c0.8,8.2,1.7,16.4,2.5,24.7c-1.3,4.7-2.7,9.4-4,14.2c-0.1,5-0.4,10-0.5,15c-1.2,4.6-4.9,9.5-5.5,13.5
	c0.5,1.8,0.9,3.6,1.5,5.5c1.1,5,0.8,11.7-0.5,16.2c-1.2,2.3-2.3,4.6-3.5,6.9c-0.8,0.6-1.7,1.2-2.5,1.8c-0.4,3.8-0.8,7.7-1.2,11.5
	c-1.6,7.4-1.7,18.1,0,25.7c0.5,3.4,0.9,6.9,1.5,10.3c-0.8,1.8-1.5,3.6-2.3,5.5c-0.1-0.1-0.4-0.1-0.5-0.2c-0.8-2.6-1.5-5.1-2.3-7.7
	c-0.9-12.5-1.9-24.9-2.8-37.4c-0.8-9.2-1.5-18.3-2.3-27.5c-0.9-9.7-1.9-19.4-2.8-29.1c-1.5-12.4-2.8-24.8-4.3-37.2
	c-1.2-12.7-2.5-25.3-3.7-38c-3.2-23.7-6.3-47.4-9.5-71.2c-2.8-17-5.5-34-8.3-50.9c-3.6-19-7.2-38-10.8-57c-0.1,0-0.1,0-0.3,0
	c-8.7,23-17.3,46.1-26,69.1c-6.5,20.1-13.1,40.2-19.7,60.2c-2.3,8.2-4.5,16.3-6.8,24.5c-2,1.6-4,3.2-6,4.9
	c-5.6,5.5-9.7,11.9-11.5,20.2c-13.3,0.1-20.1,24.4-22,34c-0.5,0-0.9,0-1.5,0c-3.3-4.7-0.3-11.6,1.5-17c2.5-9.4,4.9-18.7,7.5-28.1
	c1.3-4.1,4.5-9.3,3.5-14.4c-1.1-12.1-2.1-24.1-3.2-36.2c-0.9-10-1.9-20.1-2.8-30.1c-3.3-30.9-6.7-61.7-10-92.6
	c-3.5-15.1-0.4-38.5,5.1-49.5c2-4,1.1-7.2,5.5-10.1c2,0.3,2.7,0.9,4,1.6c2.1-4.3,11.2-13.8,16-16.4c1.6,0,2.5,0.1,3.5,0.4
	c2.5,10.4,2.8,23.3,4,35c0.3,2.5-2.9,3.1-2.3,6.3c2.4,11.2,1.1,23.9,3.7,36c0,3.8,0,7.7,0,11.5c0,7.3,0,14.6,0,21.8
	c-0.9,14.4-1.9,28.8-2.8,43.3c0.4,0,0.8,0,1.2,0c1.9-6.7,3.6-13.5,5.5-20.2c3.9-12.1,6.1-24.2,10.3-35.8c9.6-27,16.8-53.3,30-77.2
	c4.1-7.5,6.9-15.3,12-21.8c-0.4,0-0.8,0-1.2,0c7.1-9.4,14.1-18.7,21.1-28.1c2,0.5,4,0.9,6,1.4C560.9,18.6,570.2,11.3,577.8,3.2z
	 M191.5,9.3c2.9,3,2.8,7.2,5.1,10.7c2.4-0.8,3.1-1.6,5.1-0.6c4.3,7.6-3.7,16.4-6.3,23.7c-0.5,4.4-1.2,8.9-1.7,13.3
	c-4.9,33.5-9.9,67-14.8,100.5c-4.4,25.5-8.8,50.9-13.1,76.4c-1.1,8.9-2.1,17.8-3.2,26.7c-0.8,15.8-1.7,31.7-2.5,47.5
	c0.1,5.9,0.1,11.9,0.3,17.8c0,25.9,7.1,49.8,1.7,73.8c0.3,6.5,0.5,12.9,0.8,19.4c-0.4,7.8-0.8,15.6-1.2,23.5
	c-0.3,2.7-0.5,5.4-0.8,8.1c5.7,14.1,7.3,37,3.2,53.4c0.8,7.1,1.7,14.2,2.5,21.2c4,16.9,4.9,32.9,10.3,48.3c1.2,3.4,2.5,6.7,3.7,10.1
	c0.1,3.3,0.4,6.6,0.5,9.9c0.1,2.4,0.1,4.7,0.3,7.1c0-0.1,0-0.3,0-0.4c-6.3-6-6.5-17.5-9.1-25.9c-5.9-18.8-8.8-38.3-14.5-57.6
	c-8.9-30.4-11.9-62.5-19.7-94c-1.7-10.6-3.5-21.3-5.1-31.9c-1.5-16-2.8-31.9-4.3-47.9c-0.8-13.6-1.7-27.2-2.5-40.8
	c0-3.6,0-7.1,0-10.7c-0.1-10-0.1-19.9-0.3-29.9c0.3-7.4,0.5-14.8,0.8-22.2c0.4-5.7,0.8-11.3,1.2-17c1.6-15.6,3.2-31.3,4.8-46.9
	c0.9-8.2,1.9-16.4,2.8-24.7c0.3-3.2,0.5-6.5,0.8-9.7c-8.1,11.7-16.4,23.3-24.5,35c-15.2,24.3-30.3,48.8-42.3,76
	c-10.7,24.3-16.1,50.2-23.3,77.4c-1.3,8.8-2.7,17.5-4,26.3c-0.3,3.2-0.5,6.3-0.8,9.5c-3.6,10-8,20.5-11.1,31.7
	c-0.9,7.1-1.9,14.2-2.8,21.2c0,4.4,0,8.9,0,13.3c-1.7,3.4-4.8,6.9-6.3,11.1c-2.8,7.7-1.7,16.5-3.7,25.1c0,2.3,0,4.6,0,6.9
	c0,5.5,0,11.1,0,16.6c0.5,9.3,0.9,18.6,1.5,27.9c0.9,4.3,2.7,24.2,0.5,25.7c0-0.1,0-0.3,0-0.4c-7.1-7.9-3.9-22.4-6.3-33.6
	c-1.1-13.9-2.1-27.9-3.2-41.8c-0.1-5.2-0.1-10.4-0.3-15.6c-0.1-12.2-0.4-24.4-0.5-36.6c0.1-4.2,0.1-8.4,0.3-12.5
	c2.4-11.5-0.7-28.3-3.2-39c-1.5-14.7-2.8-29.4-4.3-44.1c-0.1-4.5-0.4-9-0.5-13.5c-2.5-12-1.2-25.6-1.2-38.4
	c0-39.6,3.9-76.3,12.5-110c6.7-25.6,11.9-48.5,27.3-67.3c3.2-3.8,6.3-8.7,10.8-11.5c-0.7-0.7-0.8-0.6-0.5-1.6c2.7-1.8,5.3-3.6,8-5.5
	c2.3,0.3,3.2,0.8,4.5,1.8c6.3-4.4,12.5-8.9,18.8-13.3c2.1-1.5,5.1-4.4,9.5-3c2.3,10-1.3,21-4,29.5c-0.7,2.9-1.3,5.8-2,8.7
	c-1.5,1.3-3.1,2.7-4.5,4c-1.1,5.3-2.1,10.6-3.2,16c-3.2,10.2-6.3,20.4-9.5,30.5c-10.7,29.6-23.2,59.6-30,91.2c0.1,0,0.1,0,0.3,0
	c3.2-1.2,6.1-11.5,7.7-14.6c6.5-13.1,12.7-26.2,20-38.8c17.5-30.1,37.9-58.5,60.1-85.5c10.5-12.9,16.7-28.1,27.6-40.8
	c-0.4,0-0.8,0-1.2,0c6-9.1,13.2-18.2,17.1-28.7c1.9,0.5,3.6,0.9,5.5,1.4c2.7-5.8,9.7-10,13.5-15.2C190.4,13.6,189.5,11.6,191.5,9.3z
	 M687,38.2c19.9-0.2,36.3,2.3,48.8,7.7c5.6,2.4,9.1,7.1,15.1,8.9c6.8-3.6,12.7-8.6,22-10.5c0.3-0.9,0.1-2.6,0.8-3.2
	c1.5,0.3,2.1,0,3.2-0.4c8.5,5.9,10.7,14.3,13.7,24.3c0.5,3,1.2,6.1,1.7,9.1c-0.1,8.6-0.1,17.3-0.3,25.9c0.8,8.2,1.5,16.4,2.3,24.7
	c0.8,3.8,1.7,7.7,2.5,11.5c1.1,2.1,2.1,4.2,3.2,6.3c-1.2,6-2.3,12-3.5,18c-2.8,11.3-0.8,22.8-3.5,34.8c-1.9,8.7-0.8,18.7-0.8,28.1
	c0,13.8-0.8,28,2,40.6c0.5,5.9,1.2,11.9,1.7,17.8c2.8,12,5.3,28.6,2.3,42c-0.3,8.2-0.5,16.3-0.8,24.5c-0.8,12.3-1.5,24.5-2.3,36.8
	c-0.5,7.5-1.2,15.1-1.7,22.6c-2.5,25.6-5.1,51.2-7.7,76.8c-0.9,9-1.9,17.9-2.8,26.9c-2.1,4.1-4.1,8.2-6.3,12.3
	c-3.5,6.3-5.9,12.8-10.5,18.4c-1.1,1.3-3.3,2.5-4.3,3.6c-0.4,3.7-0.8,7.4-1.2,11.1c-0.4,2.8-0.8,5.7-1.2,8.5
	c-1.3,3.4-2.7,6.9-4,10.3c-7.3,0.2-13.3,13.7-14.5,19c-0.1,0-0.1,0-0.3,0c-0.9-8.2,0.9-17.7,2.8-25.9c1.2-9.7,2.5-19.4,3.7-29.1
	c1.6-17.8,3.2-35.6,4.8-53.4c0.3-4.8,0.5-9.6,0.8-14.4c0.4-15.9,0.8-31.8,1.2-47.7c-0.1-10.3-0.1-20.6-0.3-30.9
	c-0.5-13-0.9-26-1.5-39c-1.9-19.3-3.6-38.7-5.5-58c-0.1,0.1-0.4,0.1-0.5,0.2c-1.3,5.7-7.3,12.5-14.8,13.9c-2,5.4-4,10.8-6,16.2
	c-4.8,11.3-9.2,22.4-14,33.4c-12.1,27.2-24.1,54.3-36.3,81.5c-1.5,4.5-1.6,8.4-3.2,12.5c-3.2,8.4-6.3,16.8-9.5,25.3
	c-0.1,0-0.4,0-0.5,0c-1.5-3.5-2.8-7-4.3-10.5c0.1-7.1,0.4-14.2,0.5-21.2c-0.4-4.9-0.8-9.7-1.2-14.6c-1.9-14.2-3.6-28.4-5.5-42.7
	c-2.3-12.9-4.5-25.7-6.8-38.6c3.6-15.7,3.9-33.5,7.7-50.1c0.8-7.9,1.7-15.8,2.5-23.7c0.8-9.4,1.7-18.9,2.5-28.3
	c1.2-3.2,2.5-6.3,3.7-9.5c-8.9-4.8-16.5-11.9-23.3-18.2c-27.2-24.7-45.5-48.4-56.1-85.3c-3.1-10.5-5.1-26-2.3-38
	c0.8-3.3-0.4-8.6,2-10.9c4.5-2.2,9.1-4.3,13.7-6.5c8.7-4.3,17.1-8.8,24.8-13.7c16.5-0.1,40.5-3.4,54.5-0.2c-0.4,0.5-0.8,0.9-1.2,1.4
	c-5.5,0.6-25.9,5.2-26.8,8.1c0.1,0,0.1,0,0.3,0c3.5-0.3,6.8-0.5,10.3-0.8c-0.1,0.1-0.1,0.3-0.3,0.4c-9.6,3-28.3,16.7-32.3,23.9
	c-5.7,10.4-2,35.1,2,44.5c9.1,21.5,25.9,37.1,49.1,48.7c9.3,4.7,31.3,13,49.3,9.5c0.3-31,0.9-64.7-5.7-91.8
	c-1.1-5.3-2.1-10.6-3.2-16c0.5-1.1,1.2-2.3,1.7-3.4c1.2-3.8-0.8-7.9-2.8-10.3c-6.4-7.6-17.9-12.5-32.3-14.4c0-1.1,0-2.2,0-3.2
	c0.1-0.4,0.4-0.8,0.5-1.2c6.3-2,8.8-3.2,11.7-7.5c-0.1,0-0.4,0-0.5,0c-3.9-1.4-9.7,1.1-14,0.4c-3.2-0.5-5.1-2.5-7.1-3.8
	c-15.2,1.7-26.5,2.7-32.3,10.9c-1.7-0.6-2.7-1.1-2.8-2.8c6.7-11.1,18.7-16.2,35.6-19.8C678.4,39.3,682.7,38.7,687,38.2z M234.8,62.5
	c0.5,0.1,0.9,0.1,1.5,0.2c6,3.3,6.1,13.3,8,19.4c4,14.9,8,29.8,12,44.7c10.1,32.6,14.4,66.4,24.5,99.5c6.7,21.7,10.5,43.7,15.7,66.1
	c-1.1,10.4-2.1,20.9-3.2,31.3c-0.1-0.1-0.4-0.1-0.5-0.2c-2.5-2.5-5.1-5-7.7-7.5c-0.3,0.1-0.5,0.3-0.8,0.4c-1.9,4.2-4.1,8.7-5.5,13.7
	c-0.7,4.2-1.3,8.4-2,12.5c-9.6-3.8-12.3-20.6-15.3-29.5c-10-28.3-14.7-59.6-22.8-88.9c-1.3-8.5-2.7-17-4-25.5
	c-0.8-3.6,1.5-11-1.7-12.9c-0.1,0-0.1,0-0.3,0c0,8.6-4.8,16.6-8.5,23.5c-1.9,3.4-5.2,7.3-4.3,12.5c1.3,4.9,2.7,9.7,4,14.6
	c0.4,2-1.2,3.4-1.5,4.9c0.4,1.1,0.8,2.2,1.2,3.2c0.4,3.6,0.8,7.1,1.2,10.7c0.1,3.8,0.1,7.5,0.3,11.3c-0.5,1.8-0.9,3.6-1.5,5.5
	c1.3,5.7,2.7,14.7,1.2,21.6c-0.1,3-0.4,6.1-0.5,9.1c1.2,3.7,2.3,7.4,3.5,11.1c-2.1,5.7-4.4,11.3-6.5,17c-2.7,8.8-5.3,17.7-8,26.5
	c0.8,3.9,4.7,9.2-1.5,10.3c-3.1-4.2-3.5-10.1-5.1-15.6c-3.2-12.5-6.4-24.9-9.7-37.4c-9.6-31-13.3-63.8-21.3-96c0.4-4,0.8-8,1.2-11.9
	c3.5-14,4.4-26.5,9.7-38.6c8.1-19,19.1-37.4,30-54.8c5.1-6.9,10.1-13.7,15.1-20.6c-0.3-2.2-0.5-4.3-0.8-6.5c0.8-1.6,3.5-3.4,4.5-5.3
	c1.6-2.8,2.9-9.2,1.7-13.1c-0.8-1.2-1.7-2.4-2.5-3.6C234.3,63.5,234.6,63,234.8,62.5z M421.3,307.2c-2.8-32.2-5.7-64.4-8.5-96.6
	c-0.4-4.9-0.8-9.7-1.2-14.6c-3.7-16.8-2-34.7-2-53.4c0-11.4,0.7-22.9-2-33c-0.9-3.2-1.9-6.3-2.8-9.5c-1.2-0.7-2.3-1.3-3.5-2
	c-0.8-2.8-1.5-5.7-2.3-8.5c-1.2-2.9-2.3-5.8-3.5-8.7c-0.4-0.1-0.8-0.1-1.2-0.2c-2.7,1-3.6,3.4-6.3,4c-4.1-9.1-11.6-16.2-14.8-25.7
	c-4.3,2.2-3.6,8.8-4.5,13.3c-2,9.2-0.3,19.9,1.7,27.7c0.5,2.8,0.9,5.7,1.5,8.5c-2.3-3-4.5-6.1-6.8-9.1c-6.8-8-15.5-16.7-28.3-20.4
	c-20.3-6-35.2,2.7-42.8,11.7c-8.3,9.9-9.9,22.7-13.1,36.6c-0.3,4.9-0.5,9.7-0.8,14.6c0,6.5,0,12.9,0,19.4c0.3,5.1,0.5,10.2,0.8,15.4
	c0.7,7.7,1.3,15.4,2,23c3.2,13.8,4.8,25.5,10,37.6c13.2,30.6,32.1,60.7,54.1,85.7c10.8,12.3,27.5,30.1,49.1,34.2
	c0.9,12.4,1.9,24.8,2.8,37.2c0.1,0,0.1,0,0.3,0c1.2-3.5,3.2-9.1,7.5-10.5c7.6-1.9,4.7,11.8,6,15.8c4.9,15.3,16,27.8,18,44.3
	c0.5,0,1.2,0,1.7,0C428.6,398.4,425,352.8,421.3,307.2z M351.5,260.8c-12.7-13.5-22.5-28.9-28.5-47.3c-0.9-6.8-1.9-13.6-2.8-20.4
	c-1.3-5.9-2.3-14.6-0.8-20.8c0-2,0-4,0-6.1c2.1-9.5,0.8-19.7,5.1-27.9c7.5-5.7,14.8-11.3,22.3-17c3.3,0.6,6.7,1.2,10,1.8
	c2-3.8-6.8-13.8-8-19c0.5,0,0.9,0,1.5,0c2,1.8,4,3.5,6,5.3c0.1,0,0.1,0,0.3,0c2.5,0.1,3.1-0.4,3.7-1.6c0.1-0.1,0.4-0.1,0.5-0.2
	c3.9,2.6,7.6,5.1,11.5,7.7c1.7,2.6,1.3,12.4,0.5,15.8c-1.6,7.7-1.3,19.8,0.3,26.9c1.5,10.8,2.8,21.7,4.3,32.5c3.9,32,7.7,64,11.7,96
	C373.7,285.6,358.5,268.4,351.5,260.8z"/>
</svg>